<svg width="454" height="414" viewBox="0 0 454 414" fill="none" xmlns="http://www.w3.org/2000/svg">
<path fill-rule="evenodd" clip-rule="evenodd" d="M79.3704 1.07862C72.4814 3.65162 57.1824 13.0886 49.1014 19.7496C30.5954 35.0026 15.9014 56.2806 7.65137 79.7736C-6.44863 119.927 -0.879633 170.462 22.8584 217.774C29.8604 231.73 81.1244 319.963 88.5504 330.838C132.42 395.093 197.226 424.652 259.66 408.885C273.701 405.338 283.227 401.373 295.406 394.005C306.163 387.497 309.922 382.77 311.307 374.011C313.65 359.189 306.694 340.279 288.286 311.428C273.537 288.312 264.172 278.225 251.765 272.093C245.22 268.859 243.123 268.327 235.454 267.961C224.051 267.415 219.653 268.862 202.933 278.658C190.343 286.034 189.728 286.274 183.433 286.271C175.346 286.268 167.747 282.734 161.157 275.912C158.159 272.809 148.483 257.106 131.913 228.454C118.293 204.902 106.558 183.977 105.835 181.954C103.826 176.328 104.099 163.093 106.323 158.274C108.784 152.941 111.579 150.527 123.165 143.722L132.933 137.985L134.154 140.264C134.826 141.517 141.576 147.468 149.154 153.489C185.806 182.608 242.394 226.724 246.071 229.045C256.036 235.336 269.202 236.324 279.572 231.559C282.848 230.054 313.128 206.948 357.433 172.146C397.308 140.824 430.496 114.85 431.183 114.427C432.18 113.812 432.433 132.633 432.433 207.26V300.865L429.978 303.319L427.524 305.774L375.728 305.78C342.458 305.783 322.573 306.163 320.131 306.841C312.603 308.931 310.055 318.081 315.351 324.008L318.27 327.274H374.601C430.031 327.274 431.007 327.24 435.555 325.137C442.087 322.117 448.353 316.117 451.08 310.274L453.413 305.274L453.423 200.22L453.433 95.1666L450.845 89.9726C447.661 83.5836 441.81 78.4326 434.725 75.7816C429.445 73.8056 427.096 73.7736 289.098 73.7736H148.838L140.385 57.0906C129.86 36.3156 122.234 24.6366 112.628 14.5826C101.265 2.68862 88.7074 -2.41038 79.3704 1.07862ZM92.0604 24.6186C99.9264 30.3166 108.549 42.5406 119.681 63.7736C132.928 89.0426 136.156 104.995 129.751 113.54C128.751 114.874 121.408 119.754 113.433 124.384C93.3734 136.03 87.5294 142.764 83.8144 158.515C81.8214 166.965 82.4774 180.924 85.2354 188.774C86.2984 191.799 96.0494 209.574 106.904 228.274C117.758 246.974 129.615 267.449 133.251 273.774C146.523 296.856 162.815 307.774 183.984 307.774C193.771 307.774 197.837 306.327 213.433 297.297C229.282 288.121 234.048 287.006 241.401 290.757C247.048 293.638 254.121 300.33 260.851 309.157C268.254 318.868 281.709 341.483 285.496 350.58C288.81 358.54 291.108 368.573 290.174 371.006C289.187 373.58 273.386 382.083 263.335 385.45C235.602 394.739 206.381 393.672 180.351 382.417C152.089 370.199 124.935 346.452 104.719 316.274C96.7044 304.309 45.9634 215.97 40.3884 204.274C32.2104 187.119 26.6334 169.678 23.2794 150.774C21.2964 139.592 21.5664 112.267 23.7624 101.922C29.0714 76.9166 39.4244 58.4926 58.1444 40.7406C66.7084 32.6196 82.9144 21.7956 86.5334 21.7806C87.4134 21.7766 89.9004 23.0536 92.0604 24.6186ZM419.367 96.0556C418.506 96.7256 385.735 122.474 346.542 153.274C307.349 184.074 273.854 210.043 272.108 210.982C268.141 213.116 262.234 213.24 258.421 211.268C256.819 210.439 232.179 191.427 203.667 169.018C175.155 146.609 150.845 127.599 149.645 126.774L147.464 125.274L150.572 119.067C153.145 113.927 153.768 111.305 154.195 103.817L154.71 94.7736L287.822 94.8056C392.653 94.8306 420.6 95.0956 419.367 96.0556Z" fill="black"/>
</svg>
