<svg width="64" height="65" viewBox="0 0 64 65" fill="none" xmlns="http://www.w3.org/2000/svg">
<path d="M32 6.5C22.0625 6.5 14 14.1737 14 23.625C14 34.5 26 51.7337 30.4062 57.6862C30.5891 57.9375 30.8289 58.142 31.1058 58.283C31.3828 58.4239 31.6892 58.4974 32 58.4974C32.3108 58.4974 32.6172 58.4239 32.8942 58.283C33.1711 58.142 33.4109 57.9375 33.5938 57.6862C38 51.7362 50 34.5087 50 23.625C50 14.1737 41.9375 6.5 32 6.5Z" stroke="black" stroke-width="4" stroke-linecap="round" stroke-linejoin="round"/>
<path d="M32 30.5C35.3137 30.5 38 27.8137 38 24.5C38 21.1863 35.3137 18.5 32 18.5C28.6863 18.5 26 21.1863 26 24.5C26 27.8137 28.6863 30.5 32 30.5Z" stroke="black" stroke-width="4" stroke-linecap="round" stroke-linejoin="round"/>
</svg>
