<svg width="145" height="82" viewBox="0 0 145 82" fill="none" xmlns="http://www.w3.org/2000/svg">
<path d="M38.491 81.9774C38.0425 81.9242 37.4759 81.7466 37.2318 81.5829C36.9877 81.4192 36.6664 81.2429 36.5178 81.1911C36.2444 81.0958 34.9779 78.8339 34.9779 78.4409C34.9779 78.3236 34.8754 78.1455 34.7502 78.0449C34.625 77.9444 32.3837 73.8078 29.7695 68.8525C27.1554 63.8971 24.1961 58.3011 23.1934 56.4169C22.1907 54.5326 20.6604 51.6426 19.7926 49.9947C18.9249 48.3467 16.931 44.6125 15.3619 41.6963C10.0107 31.7517 1.08447 15.0803 0.467216 13.8777C-0.238437 12.5027 -0.242149 12.5134 1.13706 11.964C1.61319 11.7744 2.14927 11.4892 2.32834 11.3303C2.50741 11.1714 2.82614 11.0438 3.03663 11.0468C3.24713 11.0498 3.64017 11.0093 3.91007 10.9569C4.22443 10.8959 4.57519 10.9489 4.886 11.1044C5.46948 11.3962 5.88483 11.4135 6.15034 11.1568C6.36187 10.9522 8.37708 10.8833 8.3773 11.0806C8.37745 11.2173 9.34986 11.2333 9.70255 11.1024C9.83954 11.0515 10.0836 10.726 10.2449 10.3791C10.4063 10.0322 10.725 9.58221 10.9531 9.37919C11.2095 9.15113 11.368 8.84906 11.368 8.5888C11.368 8.3571 11.4334 8.12845 11.5133 8.08067C11.5932 8.0329 11.7046 7.79132 11.7608 7.54382C11.817 7.29633 12.0262 6.86107 12.2258 6.57657C12.4254 6.29208 12.6708 5.81846 12.7713 5.52409C13.008 4.83006 13.4643 4.43259 13.8981 4.54234C14.3095 4.6464 14.9758 4.41761 15.2262 4.08631C15.4265 3.82131 15.7159 3.85071 16.8221 4.24845C17.2102 4.38802 18.2965 4.52137 19.4979 4.57693C20.6102 4.62837 21.6265 4.71199 21.7564 4.76275C21.8862 4.81351 23.3028 4.87855 24.9044 4.90727C26.5059 4.936 27.9579 4.96504 28.131 4.97182C28.7816 4.99727 31.325 4.82008 32.5382 4.66479C33.2308 4.57614 34.187 4.46206 34.6631 4.41128C35.1392 4.3605 35.6705 4.25956 35.8436 4.18697C36.0167 4.11438 36.5125 4.01727 36.9454 3.97118C37.3782 3.9251 38.1397 3.84334 38.6374 3.78952C39.1352 3.73569 39.5425 3.64282 39.5425 3.58313C39.5425 3.40594 41.5633 2.9307 41.9263 3.02253C42.1102 3.06905 42.8001 3.00959 43.4593 2.89041C46.8342 2.28029 47.9261 2.12391 49.7734 1.98617C50.4227 1.93776 51.3291 1.77248 51.7877 1.6189C52.6813 1.31965 57.8386 1.29738 58.4097 1.59031C58.5509 1.66277 59.2154 1.80728 59.8863 1.91145C60.5573 2.01561 61.1062 2.16126 61.1062 2.23511C61.1062 2.30896 61.282 2.32669 61.4969 2.27452C61.7832 2.20501 62.0177 2.28557 62.3746 2.57615C62.8353 2.9511 63.1165 3.04435 63.5969 2.9814C63.7115 2.96638 63.9126 3.0402 64.0437 3.14543C65.2669 4.12749 68.6614 4.18281 68.6614 3.22069C68.6614 2.96331 70.207 2.02413 70.4205 2.15177C70.5083 2.20428 70.7328 2.17426 70.9193 2.08507C71.5593 1.77906 73.305 1.02858 74.0916 0.721316C76.6065 -0.261026 86.9716 -0.23463 92.2869 0.767652C92.9449 0.891711 93.7109 0.993213 93.9893 0.993213C94.2677 0.993213 94.6265 1.06104 94.7867 1.14395C94.9806 1.24432 95.5052 1.23904 96.357 1.12815C97.2831 1.00759 97.7538 1.00761 98.0623 1.12823C98.4056 1.2624 101.663 1.49158 102.463 1.43784C105.629 1.22511 107.005 1.53197 108.685 2.82548C109.116 3.15765 109.53 3.42942 109.604 3.42942C109.876 3.42942 110.339 4.683 111.008 7.23599C111.26 8.19905 111.603 9.29534 111.77 9.67219C111.936 10.049 112.262 10.7886 112.493 11.3157C112.725 11.8427 112.951 12.5944 112.995 12.986C113.052 13.485 113.217 13.8527 113.545 14.2144C114.073 14.7964 114.359 15.4123 114.24 15.7121C114.135 15.9763 114.635 17.0912 115.116 17.6671C115.326 17.9177 115.664 18.5339 115.868 19.0364C116.072 19.5388 116.435 20.2925 116.673 20.7112C116.912 21.13 117.682 22.6873 118.385 24.1719C119.603 26.7451 120.393 28.2051 120.838 28.705C120.95 28.8307 121.266 29.4806 121.54 30.1494C122.075 31.4514 122.313 31.8793 123.359 33.4252C124.435 35.0165 125.779 37.2857 125.978 37.8511C126.206 38.4958 127.488 40.8746 127.784 41.2026C127.903 41.3348 128.001 41.4994 128.001 41.5683C128.001 41.6372 128.307 42.2142 128.681 42.8505C129.055 43.4868 129.525 44.3843 129.725 44.8449C129.925 45.3055 130.284 45.958 130.523 46.2948C130.762 46.6317 131.06 47.1456 131.186 47.4368C131.312 47.728 131.532 48.0603 131.675 48.1753C131.819 48.2902 131.936 48.478 131.936 48.5927C131.936 48.7073 132.08 48.8874 132.257 48.9928C132.433 49.0982 132.78 49.527 133.029 49.9457C133.277 50.3644 133.894 51.1763 134.4 51.7499C135.238 52.7 136.678 54.5641 137.671 55.9851C137.886 56.2919 138.203 56.6387 138.375 56.7557C138.804 57.046 139.061 57.7199 138.814 57.9015C138.386 58.2146 137.138 58.8534 136.945 58.8581C136.019 58.8807 135.863 59.7195 136.677 60.2996C137.029 60.5508 137.419 60.9448 137.543 61.1751C137.666 61.4054 137.846 61.5938 137.941 61.5938C138.037 61.5938 138.422 61.885 138.797 62.2409C139.172 62.5968 139.694 63.0721 139.957 63.297C140.497 63.7588 140.536 63.9106 140.199 64.2366C140.069 64.3623 139.963 64.57 139.963 64.6984C139.963 64.8267 139.818 65.0627 139.64 65.2227C139.402 65.4377 139.345 65.6181 139.421 65.9138C139.54 66.3708 138.935 66.5236 138.759 66.081C138.708 65.951 138.553 65.8819 138.41 65.9247C138.269 65.9668 136.524 65.9435 134.533 65.8728C131.044 65.749 130.145 65.8215 131.049 66.1537C131.914 66.4722 133.663 66.6554 136.195 66.693C137.628 66.7143 138.961 66.7809 139.157 66.841C139.438 66.9272 139.531 66.8831 139.599 66.6321C139.723 66.1757 140.121 66.231 140.121 66.7046C140.121 67.256 139.852 67.6748 139.39 67.8448C138.778 68.0699 138.943 68.271 140.986 69.7903C141.073 69.8547 141.392 70.0402 141.695 70.2026C141.998 70.365 142.363 70.5888 142.506 70.6999C142.649 70.8111 142.868 70.8804 142.993 70.8539C143.704 70.7035 144.342 72.7972 143.758 73.3626C143.468 73.6429 143.559 73.7748 144.043 73.7748C144.754 73.7748 145 73.9239 145 74.3545C145 74.64 144.952 74.7032 144.828 74.583C144.731 74.4888 144.39 74.4512 144.042 74.4963C143.704 74.5402 143.117 74.4919 142.737 74.389C142.24 74.2544 141.958 74.2473 141.733 74.3638C140.653 74.9229 124.149 74.3335 118.557 73.5361C117.735 73.4188 116.176 73.2884 115.094 73.2463C114.012 73.2042 112.56 73.0998 111.867 73.0143C110.16 72.8036 105.899 72.5154 104.115 72.4899L102.658 72.4692L102.187 72.9844C101.582 73.6449 101.593 73.7269 102.305 73.9225C103.587 74.2741 105.684 74.2997 106.244 73.9705C106.743 73.6771 106.783 73.676 107.66 73.9325C108.156 74.0777 109.306 74.278 110.215 74.3775C112.392 74.6159 112.409 74.618 113.048 74.7312C113.351 74.7849 114.117 74.8693 114.751 74.9187C115.385 74.9681 116.09 75.0773 116.319 75.1614C116.547 75.2455 116.894 75.2755 117.09 75.2281C117.285 75.1806 117.749 75.2077 118.121 75.2883C119.349 75.5544 126.269 75.6318 126.269 75.3794C126.269 75.0314 126.571 74.9492 126.954 75.1925C127.208 75.3533 127.391 75.3751 127.588 75.2681C127.787 75.1605 127.941 75.1807 128.13 75.3396C128.499 75.6495 137.707 75.6899 138.074 75.3831C138.344 75.1573 140.356 74.9274 140.63 75.0911C140.729 75.1505 141.322 75.208 141.947 75.2188C142.635 75.2307 143.184 75.3187 143.337 75.4413C143.549 75.6118 143.635 75.6043 143.874 75.3946C144.031 75.2574 144.236 75.1452 144.33 75.1452C144.425 75.1452 144.533 75.0595 144.572 74.9549C144.7 74.6074 144.86 74.9501 144.756 75.3502C144.616 75.891 144.32 75.9509 141.616 75.9856C140.317 76.0023 138.476 76.1033 137.524 76.21C134.25 76.577 120.924 76.3053 115.881 75.7688C114.28 75.5984 111.679 75.3196 110.103 75.1491C105.265 74.6261 101.304 74.502 97.3867 74.7509C95.0277 74.9008 94.2879 74.7933 92.2832 74.0093L90.9573 73.4907L85.8934 74.6891C80.854 75.8818 73.8111 76.9811 68.8188 77.3544C66.3472 77.5392 63.8834 77.8936 60.2884 78.5814C58.3236 78.9574 55.3134 79.4645 53.5989 79.7085C51.8845 79.9524 50.0213 80.2536 49.4586 80.3777C48.8959 80.5017 48.0863 80.6464 47.6595 80.6991C47.2326 80.7518 46.8229 80.8311 46.7489 80.8753C46.6749 80.9196 46.1762 80.9537 45.6405 80.9512C45.1049 80.9488 44.6275 81.008 44.5797 81.0828C44.5318 81.1577 44.0341 81.2943 43.4735 81.3865C42.913 81.4787 41.7461 81.6712 40.8804 81.8142C39.9032 81.9757 38.9972 82.0376 38.491 81.9774V81.9774ZM39.5293 80.9423C39.6617 80.8612 39.9092 80.8634 40.1386 80.9478C40.6594 81.1393 41.514 80.8302 41.7297 80.3722C41.9345 79.9375 42.3756 79.9083 42.4875 80.3221C42.613 80.7866 44.9222 80.524 45.9172 79.9321C46.0903 79.8291 46.6569 79.703 47.1763 79.6519C48.6835 79.5036 49.9604 79.2623 50.6391 78.9975C51.044 78.8396 51.8587 78.7369 52.9214 78.7098C53.8304 78.6866 54.6804 78.6342 54.8102 78.5935C54.9401 78.5527 55.7546 78.4376 56.6203 78.3378C57.486 78.238 58.513 78.0674 58.9026 77.9587C59.2922 77.85 59.9296 77.7222 60.3192 77.6746C60.7088 77.6271 61.2046 77.5521 61.421 77.508C62.69 77.2492 65.6531 76.8082 66.5365 76.7467C66.7962 76.7286 67.1594 76.6672 67.3437 76.6103C67.6651 76.511 68.4801 76.4458 71.5732 76.2723C74.2738 76.1208 76.0744 75.8886 77.8089 75.4682C78.4481 75.3133 79.1127 75.1852 79.2858 75.1837C79.4589 75.1821 79.9548 75.0993 80.3876 74.9997C80.8204 74.9001 81.6076 74.7648 82.1369 74.6992C82.6662 74.6335 83.1971 74.5212 83.3167 74.4497C83.4363 74.3782 83.8532 74.2724 84.2432 74.2147C84.6331 74.157 86.0855 73.8614 87.4706 73.5579C88.8557 73.2543 90.1483 72.9721 90.3431 72.9307C90.5379 72.8893 90.6973 72.7516 90.6973 72.6246C90.6973 72.4976 90.8073 72.2312 90.9419 72.0325C91.3533 71.4251 90.1692 71.3576 87.7067 71.848C87.0574 71.9773 86.1897 72.1289 85.7785 72.1849C85.3673 72.2409 85.0309 72.3349 85.0309 72.3938C85.0309 72.4966 83.3407 72.828 81.0172 73.1806C80.4112 73.2726 79.1717 73.4021 78.2627 73.4685C76.4773 73.5988 74.5962 73.8829 74.0916 74.0984C73.9185 74.1723 73.5643 74.2352 73.3046 74.2381C71.9613 74.2531 70.6932 74.4159 70.0779 74.6523C69.7609 74.7741 69.5449 74.806 68.3466 74.9082C67.7839 74.9562 66.686 75.1019 65.9069 75.2321C65.1277 75.3622 64.2247 75.5058 63.9 75.5513C63.5754 75.5968 63.3098 75.6903 63.3098 75.7591C63.3098 75.8279 63.1858 75.9122 63.0343 75.9465C62.8679 75.9841 62.9887 76.0548 63.3398 76.1251C63.7272 76.2028 64.1727 76.1649 64.6777 76.0115C65.094 75.885 65.814 75.7435 66.2777 75.697C66.7413 75.6505 67.2017 75.551 67.3008 75.4757C67.3998 75.4005 67.5871 75.3305 67.717 75.3201C67.8468 75.3097 68.4134 75.2659 68.9761 75.2226C71.3243 75.0423 74.6295 74.6531 75.5406 74.4497C76.0778 74.3298 76.8084 74.2316 77.1643 74.2316C77.5201 74.2316 77.9313 74.1694 78.0782 74.0934C78.225 74.0174 78.8076 73.9183 79.3729 73.8733C79.9382 73.8283 80.5858 73.7233 80.812 73.6401C81.0383 73.5569 81.5312 73.4494 81.9073 73.4012C82.2834 73.353 83.5828 73.187 84.7948 73.0323C86.0068 72.8776 87.14 72.8032 87.3132 72.867C87.7373 73.0233 87.449 73.1141 86.1327 73.2388C85.1377 73.3331 82.9113 73.686 82.2764 73.8501C82.003 73.9207 80.8721 74.0732 78.8923 74.3064C78.5893 74.3421 77.9873 74.4358 77.5544 74.5146C75.3652 74.9131 74.9009 74.9772 74.7699 74.8989C74.6916 74.852 74.5069 74.8672 74.3595 74.9325C74.2122 74.9979 73.4187 75.1354 72.5963 75.2381C71.7739 75.3408 70.3573 75.5338 69.4483 75.667C68.5394 75.8002 67.5832 75.9378 67.3235 75.9727C67.0637 76.0077 66.3701 76.1463 65.7819 76.2808C65.1938 76.4153 64.6604 76.4941 64.5966 76.4559C64.5328 76.4178 63.8967 76.4846 63.183 76.6044C60.9341 76.9819 59.6333 77.1652 58.9228 77.2046C58.5443 77.2256 58.1901 77.3019 58.1358 77.374C58.0814 77.4462 57.5628 77.5083 56.9832 77.512C56.2438 77.5168 55.8448 77.5921 55.6453 77.7645C55.3854 77.9892 54.7013 78.1194 53.0001 78.2677C52.4872 78.3125 50.4792 78.3305 47.8846 78.3137C47.6682 78.3123 47.3495 78.3185 47.1763 78.3275C47.0032 78.3365 46.3483 78.3401 45.7211 78.3355C44.6036 78.3273 42.9213 78.5528 42.297 78.7945C42.1238 78.8616 41.4155 78.9962 40.723 79.0938C39.4741 79.2697 38.6169 79.5094 38.5778 79.6935C38.3184 80.9156 38.7175 81.4394 39.5293 80.9423V80.9423ZM37.6537 79.0039C37.6537 78.7079 37.5513 78.284 37.4262 78.0617C37.301 77.8394 37.077 77.3835 36.9284 77.0485C36.7798 76.7135 36.5028 76.2339 36.3129 75.9826C36.123 75.7314 35.913 75.3546 35.8463 75.1452C35.7796 74.9358 35.6263 74.5768 35.5057 74.3474C35.385 74.118 35.2801 73.8782 35.2724 73.8145C35.259 73.7032 34.507 72.1967 34.1505 71.567C34.0557 71.3995 33.6112 70.5773 33.1627 69.7399C32.0883 67.7334 31.7836 67.2209 31.2089 66.4535C30.9445 66.1004 30.7281 65.7437 30.7281 65.6608C30.7281 65.578 30.5156 65.1761 30.2559 64.7678C29.9962 64.3595 29.7837 63.9512 29.7837 63.8604C29.7837 63.6332 29.3163 62.669 28.9688 62.1794C28.811 61.9571 28.6819 61.7061 28.6819 61.6217C28.6819 61.5372 28.4341 61.1041 28.1313 60.6593C27.8284 60.2144 27.3933 59.3691 27.1643 58.7808C26.9353 58.1924 26.6967 57.6426 26.634 57.5588C26.3912 57.2344 24.683 54.0827 24.3647 53.3716C24.3084 53.246 24.174 53.0062 24.066 52.8387C23.958 52.6712 23.6756 52.1916 23.4384 51.7729C23.2012 51.3541 22.8674 50.806 22.6965 50.5548C22.5257 50.3035 22.144 49.6323 21.8483 49.0632C21.5526 48.494 21.2484 47.9459 21.1722 47.8451C21.0961 47.7443 20.869 47.2507 20.6677 46.7482C20.4663 46.2457 19.9625 45.1494 19.5482 44.312C19.1338 43.4745 18.5779 42.344 18.3128 41.7996C18.0477 41.2553 17.6583 40.5016 17.4475 40.1248C16.6732 38.7409 16.2224 37.891 15.6706 36.775C15.3601 36.1469 14.9819 35.4617 14.8303 35.2523C14.6787 35.043 14.3217 34.3235 14.0369 33.6536C13.7522 32.9836 13.3893 32.2721 13.2306 32.0724C13.0719 31.8726 12.9408 31.5643 12.9394 31.3872C12.938 31.21 12.7621 30.791 12.5485 30.4561C12.335 30.1211 12.0141 29.5387 11.8355 29.1618C11.4434 28.3342 10.0488 25.5439 9.5526 24.5939C9.35575 24.2171 9.10483 23.6004 8.995 23.2236C8.88517 22.8467 8.70855 22.4356 8.60251 22.31C8.49647 22.1844 8.19203 21.6362 7.92597 21.0919C7.65992 20.5476 7.37571 19.9994 7.2944 19.8738C7.2131 19.7482 6.9335 19.1916 6.67308 18.6369C6.37812 18.0086 6.01299 17.4998 5.7047 17.2874C5.43251 17.0999 5.03887 16.5945 4.82994 16.1643C4.62102 15.7341 4.37749 15.2793 4.28877 15.1537C4.20005 15.028 4.05537 14.754 3.96726 14.5446C3.87915 14.3352 3.5276 13.8234 3.18603 13.4073C2.72938 12.8509 2.58884 12.5587 2.65509 12.3034C2.76715 11.8714 2.48949 11.8473 2.12649 12.2574C1.97111 12.433 1.81914 12.4951 1.76237 12.4062C1.68232 12.2809 0.505678 12.6105 0.508039 12.7576C0.512508 13.0359 1.48174 15.0637 1.806 15.4732C2.04407 15.7739 2.23885 16.1249 2.23885 16.2533C2.23885 16.3817 2.3451 16.572 2.47495 16.6763C2.60481 16.7805 2.71105 16.9305 2.71105 17.0096C2.71105 17.0887 2.8811 17.3715 3.08894 17.6381C3.54955 18.2289 4.27727 19.4621 4.94729 20.7874C5.2225 21.3317 5.65508 22.1197 5.90857 22.5384C6.16207 22.9571 6.35725 23.3186 6.34232 23.3417C6.32739 23.3648 6.53128 23.7951 6.7954 24.2979C7.05953 24.8007 7.27563 25.3315 7.27563 25.4774C7.27563 25.6233 7.47613 25.981 7.72118 26.2722C7.96624 26.5635 8.35975 27.2129 8.59565 27.7153C8.83156 28.2178 9.17218 28.903 9.35259 29.238C9.53299 29.5729 9.99089 30.4241 10.3701 31.1294C10.7494 31.8347 11.1429 32.5088 11.2446 32.6274C11.3464 32.746 11.552 33.1793 11.7016 33.5902C11.8513 34.0012 12.1207 34.5182 12.3004 34.7393C12.4802 34.9603 12.6272 35.2072 12.6272 35.2879C12.6272 35.4703 13.1256 36.5191 13.2616 36.6227C13.4816 36.7904 14.4853 38.5845 14.6731 39.1457C14.9517 39.978 15.4113 40.8418 16.0043 41.6474C16.2817 42.0242 16.6049 42.5724 16.7225 42.8655C16.8401 43.1586 17.1001 43.6104 17.3002 43.8696C17.5003 44.1287 17.664 44.4134 17.664 44.5023C17.664 44.5911 17.9119 44.9509 18.2149 45.3017C18.5179 45.6525 18.7658 46.0328 18.7658 46.1468C18.7658 46.2608 18.9654 46.6826 19.2093 47.0841C19.4533 47.4855 19.9214 48.3622 20.2496 49.0321C21.5141 51.6132 21.8044 52.1548 22.013 52.3222C22.1315 52.4174 22.2289 52.5726 22.2292 52.667C22.2296 52.7614 22.4067 53.1758 22.6227 53.5877C22.8388 53.9997 23.0156 54.4331 23.0156 54.5508C23.0156 54.6684 23.2989 55.2849 23.6452 55.9207C23.9914 56.5565 24.2748 57.1743 24.2748 57.2936C24.2748 57.4129 24.5109 57.7773 24.7994 58.1034C25.088 58.4295 25.3264 58.783 25.3292 58.8889C25.332 58.9948 25.6272 59.5761 25.985 60.1807C26.3429 60.7853 26.6357 61.3209 26.6357 61.3709C26.6357 61.421 26.948 62.0911 27.3297 62.8602C27.7114 63.6292 28.1354 64.5215 28.272 64.8431C28.4122 65.1732 28.6583 65.4627 28.8372 65.508C29.132 65.5826 29.2271 65.7433 29.1667 66.0652C29.1531 66.1378 29.2509 66.358 29.3841 66.5547C29.5173 66.7514 29.6263 67.0776 29.6263 67.2797C29.6263 67.4817 29.7326 67.7323 29.8624 67.8366C29.9923 67.9408 30.0985 68.1113 30.0985 68.2153C30.0985 68.3194 30.2289 68.568 30.3881 68.7677C30.5474 68.9674 30.7613 69.3677 30.8635 69.6572C30.9657 69.9467 31.1792 70.3235 31.338 70.4946C31.7726 70.9627 32.9317 73.2182 32.9317 73.5956C32.9317 73.6737 33.0369 73.822 33.1654 73.9251C33.2939 74.0283 33.5583 74.4307 33.7528 74.8193C34.2993 75.911 34.8507 76.6946 35.4088 77.1729C35.7063 77.4279 35.9939 77.8731 36.0998 78.2426C36.4467 79.4527 37.6537 80.044 37.6537 79.0039ZM39.9955 78.6619C40.4151 78.4048 40.0019 78.1522 39.2888 78.23C38.8557 78.2772 38.5456 78.2366 38.445 78.1193C38.2353 77.875 38.4001 77.7337 38.8948 77.7337C39.1333 77.7337 39.4407 77.5711 39.6519 77.3334L40.0075 76.9331L41.3096 77.2361C42.645 77.5469 43.3902 77.5534 45.2089 77.2703C46.4284 77.0804 47.0785 76.9971 47.4518 76.9828C48.1191 76.9574 47.6387 76.7022 46.7554 76.6129C46.2209 76.5589 45.6681 76.4136 45.5271 76.2902C45.3132 76.1029 45.0432 76.0907 43.8996 76.2164C43.1455 76.2992 42.3702 76.3604 42.1767 76.3521C40.6723 76.2884 39.8747 76.3038 39.5055 76.4037C38.9835 76.545 38.4407 76.107 38.4407 75.5445C38.4407 75.3454 38.3311 75.0945 38.1972 74.987C38.0632 74.8794 37.7744 74.4428 37.5552 74.0167C37.3361 73.5906 37.0574 73.0706 36.9358 72.8612C36.728 72.5033 36.4474 71.8931 35.8629 70.5275C35.7257 70.207 35.3996 69.6383 35.1383 69.2637C34.8769 68.8891 34.6631 68.5248 34.6631 68.4541C34.6631 68.3834 34.0965 67.2748 33.4039 65.9905C32.7114 64.7062 32.1447 63.5922 32.1447 63.5149C32.1447 63.2619 31.1759 61.3826 30.6442 60.6041C30.3582 60.1854 30.0323 59.6372 29.92 59.386C29.8076 59.1348 29.5505 58.7129 29.3487 58.4485C29.1468 58.1841 28.7355 57.4989 28.4346 56.9259C28.1337 56.3528 27.827 55.7812 27.7529 55.6556C27.6789 55.5299 27.4973 55.1531 27.3494 54.8181C27.2015 54.4831 26.8388 53.8549 26.5433 53.4219C26.2479 52.989 26.0061 52.5587 26.0061 52.4656C26.0061 52.3726 25.731 51.8267 25.3946 51.2525C25.0583 50.6784 24.6994 49.9632 24.597 49.6632C24.444 49.2145 22.9146 46.2248 20.4576 41.5712C19.6627 40.0658 18.1362 36.7773 18.1362 36.5704C18.1362 36.4543 17.9976 36.1888 17.8283 35.9806C17.6589 35.7723 17.3819 35.2663 17.2127 34.8561C16.866 34.0157 15.6625 31.7505 15.4452 31.5295C15.367 31.45 15.303 31.2368 15.303 31.0559C15.303 30.875 15.1411 30.4947 14.9431 30.2109C14.7452 29.927 14.4849 29.4549 14.3648 29.1618C14.2446 28.8687 14.0169 28.447 13.8589 28.2247C13.7009 28.0025 13.5716 27.7548 13.5716 27.6743C13.5716 27.5938 13.439 27.3646 13.2769 27.1649C13.1148 26.9652 12.9338 26.5235 12.8746 26.1834C12.8154 25.8433 12.5939 25.3701 12.3823 25.1319C12.1707 24.8937 11.9976 24.6395 11.9976 24.567C11.9976 24.4339 10.8703 22.1243 10.5986 21.701C9.93655 20.6689 9.15892 19.2212 8.95926 18.6488C8.82647 18.2681 8.46644 17.4802 8.15919 16.8978C7.85194 16.3154 7.5571 15.599 7.504 15.3059C7.4509 15.0128 7.37061 14.5902 7.32557 14.3667C7.23434 13.9141 7.60388 13.5203 8.65184 12.9535C9.3322 12.5855 9.56647 11.8697 9.05691 11.7158C8.89962 11.6682 8.64409 11.5635 8.48907 11.4831C8.33405 11.4026 8.12157 11.3903 8.01687 11.4557C7.6512 11.6843 4.73631 11.7309 4.3092 11.5151C4.01947 11.3686 3.02585 11.4703 3.02585 11.6464C3.02585 11.7082 3.20236 11.9917 3.4181 12.2762C3.63384 12.5608 3.91967 13.0334 4.05327 13.3265C4.57695 14.4754 4.93947 15.1505 5.07682 15.2326C5.15583 15.2799 5.35247 15.6069 5.5138 15.9593C5.67513 16.3118 6.09238 16.8871 6.44101 17.2379C6.89122 17.6908 7.10518 18.0588 7.17943 18.508C7.23692 18.8558 7.48871 19.391 7.73897 19.6974C7.98923 20.0038 8.38009 20.6998 8.60755 21.2442C9.24203 22.7625 9.98489 24.3438 10.2528 24.7462C10.3364 24.8718 10.4435 25.1539 10.4907 25.3731C10.5379 25.5922 10.8145 26.1062 11.1053 26.5152C11.3961 26.9242 11.7327 27.5328 11.8532 27.8677C11.9737 28.2026 12.2725 28.8125 12.5171 29.2229C12.7618 29.6334 13.0711 30.2843 13.2045 30.6694C13.3379 31.0545 13.5459 31.4778 13.6667 31.61C13.7875 31.7422 13.8864 31.9214 13.8864 32.0081C13.8864 32.0948 14.2051 32.7863 14.5947 33.5447C14.9843 34.3031 15.303 35.0318 15.303 35.1641C15.303 35.2964 15.3686 35.4046 15.4488 35.4046C15.529 35.4046 15.7898 35.7986 16.0282 36.2801C16.2667 36.7616 16.5824 37.3269 16.7297 37.5363C17.0328 37.9669 18.2009 40.1979 18.8423 41.5712C19.0769 42.0737 19.5176 42.9987 19.8216 43.6268C20.1255 44.2549 20.5495 45.1456 20.7639 45.6062C21.4202 47.0164 21.9763 48.0999 22.2488 48.4992C22.3916 48.7086 22.7312 49.291 23.0034 49.7934C23.2756 50.2959 23.5586 50.8098 23.6323 50.9354C23.7059 51.061 24.3526 52.3286 25.0694 53.7523C25.7862 55.1759 26.5408 56.5623 26.7464 56.8332C26.9519 57.104 27.2199 57.5991 27.3418 57.9333C27.5669 58.5507 27.7753 58.9623 29.7649 62.721C30.3813 63.8853 30.8905 64.9131 30.8966 65.0049C30.9027 65.0968 31.1829 65.5831 31.5193 66.0856C31.8557 66.588 32.2642 67.2732 32.4271 67.6082C32.5899 67.9432 32.8409 68.3113 32.9848 68.4262C33.1288 68.5411 33.2465 68.7478 33.2465 68.8854C33.2465 69.023 33.5298 69.6047 33.8761 70.1779C34.2224 70.7511 34.5057 71.3113 34.5057 71.4226C34.5057 71.534 34.5712 71.6643 34.6513 71.7122C34.8257 71.8165 36.2371 74.3552 36.2371 74.5646C36.2371 74.8835 37.9711 78.1904 38.1383 78.1904C38.2366 78.1904 38.2789 78.2865 38.2323 78.404C38.0754 78.7993 39.4444 78.9996 39.9955 78.6619ZM60.6721 76.5689C60.9842 76.3823 60.4482 76.2635 59.754 76.3654C58.5979 76.5351 58.4563 76.8815 59.5929 76.7596C60.1023 76.705 60.588 76.6192 60.6721 76.5689ZM42.837 75.8148C43.4301 75.7218 43.2365 75.4564 42.5724 75.4521C42.2585 75.45 42.1459 75.3031 42.197 74.9626C42.2057 74.9041 41.648 74.8811 40.9575 74.9117C39.6984 74.9674 39.5265 74.9084 39.4702 74.4012C39.3838 73.6231 38.6929 72.262 38.486 72.4621C38.4433 72.5035 38.5625 73.0195 38.7511 73.6088C38.9396 74.1982 39.0745 74.8363 39.0507 75.027C38.9313 75.9856 40.1411 76.2374 42.837 75.8148V75.8148ZM61.7358 75.5208C62.6448 75.3877 63.601 75.22 63.8607 75.1481C64.1204 75.0762 64.6444 74.9699 65.0251 74.9118C65.4059 74.8538 65.9525 74.7112 66.2399 74.5951C66.5273 74.4789 66.9134 74.3839 67.0979 74.3839C67.2823 74.3839 67.6565 74.2848 67.9293 74.1638C68.4155 73.9481 69.5156 73.7088 71.1203 73.4697C71.5637 73.4036 72.0595 73.2838 72.2221 73.2035C72.6446 72.9946 73.9948 72.6794 74.649 72.6369C74.9556 72.6169 75.4868 72.4302 75.8295 72.2218C76.1722 72.0135 76.6297 71.8017 76.8461 71.7512C78.3229 71.4068 78.8979 71.2326 79.5219 70.9405L80.2302 70.6089L79.6393 70.4999C79.2151 70.4217 78.9426 70.4579 78.6739 70.6282C78.4679 70.7588 78.1672 70.861 78.0056 70.8553C77.2664 70.8295 72.8324 72.2499 72.8324 72.5125C72.8324 72.6066 72.7793 72.735 72.7144 72.7978C72.6495 72.8606 72.5963 72.8243 72.5963 72.7171C72.5963 72.4792 71.808 72.5722 69.527 73.0792C68.6614 73.2716 67.2448 73.5804 66.3791 73.7654C65.5134 73.9503 64.6634 74.1582 64.4903 74.2274C63.3849 74.6689 61.9442 75.0123 59.5715 75.3995C59.272 75.4484 59.06 75.5736 59.06 75.7017C59.06 75.863 59.1941 75.8997 59.5715 75.8415C59.8529 75.7982 60.8268 75.6539 61.7358 75.5208V75.5208ZM52.273 75.5076C53.2061 75.3688 52.5722 75.2108 51.3081 75.2671C50.3711 75.3089 50.0882 75.3729 50.0882 75.5431C50.0882 75.7648 50.6008 75.7565 52.273 75.5076ZM51.5662 74.7522C52.8553 74.6333 54.0423 74.5361 54.204 74.5361C54.4511 74.5361 54.4689 74.491 54.3156 74.2535C54.1742 74.0345 54.0411 73.9982 53.724 74.0925C52.7822 74.3724 51.3392 74.5126 50.8389 74.3728C50.1634 74.184 45.8304 74.3626 45.5388 74.5913C45.4173 74.6866 45.1794 74.7418 45.0101 74.7141C44.8408 74.6863 44.7398 74.7224 44.7857 74.7942C44.923 75.0092 49.0555 74.9836 51.5662 74.7522V74.7522ZM56.1698 74.4898C56.23 74.4315 56.4359 74.3839 56.6273 74.3839C56.9838 74.3839 58.1156 73.9796 58.1156 73.8522C58.1156 73.7152 56.4907 73.9155 56.3283 74.0725C56.2378 74.16 56.0364 74.2316 55.8805 74.2316C55.7247 74.2316 55.5972 74.3283 55.5972 74.4465C55.5972 74.6616 55.9636 74.6893 56.1698 74.4898V74.4898ZM42.2922 74.2109C42.3417 74.163 42.0466 73.9567 41.6364 73.7525C41.0777 73.4743 40.8635 73.2682 40.7828 72.9309C40.631 72.2961 40.0999 70.9411 39.6516 70.0444C39.4423 69.6257 39.1813 69.009 39.0718 68.674C38.8231 67.9137 38.71 67.6789 38.0447 66.5423C37.4362 65.5027 36.7093 64.0951 36.7093 63.9563C36.7093 63.9051 36.4704 63.5019 36.1784 63.0603C35.8865 62.6188 35.3843 61.6115 35.0625 60.8218C34.7407 60.0321 34.3512 59.1462 34.197 58.8531C34.0428 58.56 33.7695 57.9776 33.5898 57.5588C32.7904 55.696 32.3545 54.877 31.4237 53.4891C31.2143 53.1768 31.0429 52.865 31.0429 52.7962C31.0429 52.6347 30.7551 52.0036 30.2362 51.0275C30.009 50.6 29.419 49.4851 28.9251 48.5498C28.006 46.8095 27.7451 46.4751 27.1757 46.3079C26.7423 46.1806 25.7289 44.4 25.4332 43.2461C25.2171 42.4029 24.6924 41.1925 24.3796 40.8158C24.1398 40.527 23.3463 39.1468 22.9318 38.2976C22.1726 36.7423 21.8914 36.2426 21.6887 36.089C21.4516 35.9093 20.025 33.3125 20.025 33.0606C20.025 32.9658 19.8656 32.8202 19.6708 32.7369C19.4137 32.627 19.3282 32.4767 19.3586 32.1886C19.3817 31.9703 19.2932 31.7055 19.1619 31.6001C19.0306 31.4947 18.9232 31.3219 18.9232 31.2161C18.9232 31.1103 18.6399 30.6133 18.2936 30.1116C17.9473 29.61 17.664 29.102 17.664 28.9828C17.664 28.4837 16.5247 28.1287 16.3694 28.5794C16.1879 29.106 16.8241 30.6842 17.6782 31.8264C17.9914 32.2452 18.2929 32.6905 18.3483 32.8161C18.4037 32.9418 18.5151 33.1473 18.596 33.2729C18.6769 33.3985 18.7845 33.6041 18.8352 33.7297C18.8858 33.8553 19.0885 34.2322 19.2857 34.5672C19.9567 35.7075 20.1586 36.0895 21.3398 38.4545C22.5691 40.916 24.1174 44.3512 24.1174 44.6174C24.1174 44.702 24.3002 45.1035 24.5237 45.5096C24.974 46.3279 24.9464 47.0361 24.4676 46.9469C24.2835 46.9126 24.1657 46.6826 24.092 46.2135C23.9996 45.626 23.4663 44.1903 23.0279 43.3488C22.9549 43.2086 22.6633 42.5457 22.38 41.8758C21.49 39.7711 17.7625 32.6214 17.2598 32.0548C17.1484 31.9292 16.8218 31.3898 16.5342 30.8562C15.6502 29.2159 15.5741 29.0888 15.4159 28.9885C15.3316 28.9351 15.3155 28.8086 15.3801 28.7075C15.4447 28.6065 15.4264 28.3761 15.3395 28.1957C15.2526 28.0152 15.0894 27.5593 14.9768 27.1824C14.8642 26.8056 14.6437 26.3154 14.4867 26.0931C14.3297 25.8708 14.2012 25.6386 14.2012 25.5771C14.2012 25.5157 13.6387 24.3614 12.9512 23.0122C12.2637 21.6629 11.5947 20.3192 11.4645 20.0261C11.3343 19.733 11.107 19.2876 10.9593 19.0364C10.8116 18.7851 10.6307 18.4597 10.5572 18.3131C10.3613 17.9223 10.0788 17.3939 9.92645 17.1331C9.65083 16.6613 9.00702 15.3213 9.00702 15.2194C9.00702 15.1612 8.8548 14.8752 8.66876 14.584C8.27235 13.9635 7.94044 14.2139 8.21918 14.9231C8.30622 15.1446 8.37743 15.4876 8.37743 15.6854C8.37743 16.0866 9.08654 17.6583 10.3014 19.9499C11.48 22.1729 12.0957 23.3637 12.4665 24.1372C12.6472 24.514 12.9294 25.0622 13.0937 25.3553C13.2579 25.6484 13.4701 26.1767 13.5651 26.5293C13.6602 26.8819 13.9956 27.497 14.3106 27.8962C14.6256 28.2954 15.2993 29.5143 15.8077 30.6049C16.7999 32.7333 17.5694 34.326 18.3106 35.7853C18.5659 36.2877 18.7727 36.7607 18.7702 36.8364C18.7639 37.0335 19.552 38.6352 19.7889 38.9066C19.8986 39.0323 20.1533 39.5804 20.3551 40.1248C20.5569 40.6691 20.8823 41.3445 21.0783 41.6257C21.2743 41.9068 21.6179 42.5235 21.8418 42.996C22.4955 44.3754 23.04 45.3552 23.3347 45.6823C23.4855 45.8498 23.6566 46.1582 23.7149 46.3675C23.8452 46.8357 24.3146 47.9386 24.4278 48.0424C24.4735 48.0843 24.7588 48.6322 25.0618 49.26C25.3647 49.8878 25.7543 50.6089 25.9274 50.8625C26.1006 51.1162 26.3713 51.6303 26.5289 52.0051C26.7981 52.6448 27.0299 53.1139 27.6179 54.2091C27.7528 54.4603 28.0122 54.9496 28.1943 55.2965C28.9259 56.6895 29.6398 57.825 29.7295 57.7382C29.7647 57.7041 29.6913 57.4785 29.5663 57.2369C29.3373 56.794 28.6667 54.7643 28.6789 54.5509C28.6937 54.2939 28.1565 53.2396 27.5558 52.3469C27.2048 51.8251 26.9073 51.2256 26.8947 51.0147C26.8821 50.8037 26.8273 50.631 26.7729 50.631C26.7185 50.6309 26.5803 50.4082 26.4658 50.136C26.3513 49.8639 26.0195 49.278 25.7284 48.834C25.2212 48.0605 25.1194 47.5842 25.4552 47.5566C25.5418 47.5495 25.6948 47.6994 25.7952 47.8897C25.8955 48.0801 26.0444 48.2779 26.126 48.3294C26.3291 48.4576 26.7477 49.3834 26.8711 49.9772C26.9269 50.2457 27.3218 51.0275 27.7486 51.7145C28.1753 52.4014 28.5245 53.0822 28.5245 53.2274C28.5245 53.3725 28.6247 53.5285 28.7472 53.574C28.9907 53.6644 29.1451 53.9135 30.0836 55.7317C30.4294 56.4016 30.9547 57.2749 31.2509 57.6723C31.5471 58.0697 32.0198 58.9604 32.3012 59.6517C32.5827 60.343 32.99 61.0924 33.2063 61.317C33.4227 61.5416 33.6587 61.9869 33.7308 62.3067C33.803 62.6264 33.9106 63.0936 33.9699 63.3448C34.1122 63.947 36.189 68.1102 36.5903 68.5979L36.9036 68.9785L36.7883 68.4456C36.7248 68.1525 36.6218 67.8442 36.5594 67.7604C36.4969 67.6767 36.2818 67.1628 36.0814 66.6185C35.881 66.0741 35.5507 65.267 35.3475 64.8249C35.1442 64.3827 34.9779 63.9533 34.9779 63.8706C34.9779 63.7879 34.631 63.1219 34.2071 62.3905C33.7832 61.6592 33.3274 60.7526 33.1942 60.3757C32.8583 59.4247 31.8871 57.5659 31.61 57.3434C31.3562 57.1396 30.5707 55.7511 30.5707 55.5061C30.5707 55.2044 31.0233 55.356 31.1309 55.6936C31.1909 55.882 31.4436 56.3067 31.6924 56.6372C31.9412 56.9677 32.1447 57.3222 32.1447 57.4249C32.1447 57.5276 32.3041 57.8053 32.4989 58.042C32.84 58.4566 33.2748 59.2537 33.7717 60.3757C34.1398 61.2069 34.645 62.2281 34.977 62.8119C35.2951 63.3714 35.9318 64.8836 35.9874 65.2116C36.0053 65.3171 36.1042 65.485 36.2072 65.5846C36.3102 65.6843 36.3945 65.9218 36.3945 66.1126C36.3945 66.3033 36.5932 66.8206 36.8362 67.2622C37.0791 67.7037 37.3689 68.3681 37.4803 68.7385C37.5916 69.1089 37.9685 69.9218 38.3179 70.5448C38.8911 71.5672 39.1479 72.1334 39.7725 73.7523C40.0316 74.424 41.7488 74.7366 42.2922 74.2109V74.2109ZM29.9411 54.6278C29.0245 52.6946 27.9757 50.7296 27.4146 49.8942C27.0728 49.3854 26.7931 48.9076 26.7931 48.8325C26.7931 48.7574 26.6161 48.5111 26.3996 48.2852C26.1832 48.0593 26.0057 47.7581 26.0052 47.6159C26.0047 47.4736 25.8984 47.161 25.7691 46.9211C25.484 46.3924 25.4823 46.3674 25.7307 46.3679C25.8389 46.368 26.1382 46.7621 26.3958 47.2434C27.0064 48.3842 28.1313 50.2356 28.702 51.039C28.9507 51.389 29.1541 51.7432 29.1541 51.826C29.1541 52.0031 29.6574 52.9557 29.8106 53.0685C29.8687 53.1113 29.9688 53.3491 30.0331 53.597C30.0974 53.8449 30.2857 54.2702 30.4516 54.5421C30.7352 55.0071 30.7209 55.351 30.4181 55.351C30.3443 55.351 30.1297 55.0256 29.9411 54.6278V54.6278ZM45.1763 73.9209C45.5321 73.3698 43.8767 73.1472 43.2089 73.6563C43.1045 73.7359 42.9525 73.7613 42.8713 73.7127C42.7044 73.6129 42.5033 73.9998 42.6488 74.1406C42.9222 74.405 44.9792 74.2262 45.1763 73.9209V73.9209ZM99.5116 73.9102C101.18 73.603 101.85 73.071 101.25 72.5304C100.9 72.2152 99.9959 72.2854 97.7411 72.8026C97.1363 72.9413 96.5601 72.9945 96.4032 72.9261C96.2516 72.8601 95.5067 72.7939 94.7478 72.779C93.7752 72.7599 93.2876 72.684 93.0951 72.5219C92.5275 72.0437 91.971 72.1137 91.6443 72.7042C91.0636 73.7538 96.1379 74.5316 99.5116 73.9102ZM141.558 73.8372C142.303 73.7451 142.436 73.6208 142.773 72.709C143.292 71.3038 140.77 70.7211 139.411 71.9323L138.771 72.5035L137.124 72.5348C136.218 72.5519 135.052 72.6414 134.533 72.7335C134.014 72.8256 131.712 72.9149 129.417 72.932C125.401 72.962 123.831 73.0741 123.988 73.3198C124.198 73.6475 125.117 73.7127 131.213 73.8326C133.803 73.8835 135.958 73.9602 136.002 74.003C136.099 74.0967 140.528 73.9645 141.558 73.8372V73.8372ZM38.0192 73.0596C37.8904 72.5824 37.6492 72.0251 37.4833 71.8209C37.3173 71.6168 37.1815 71.2972 37.1815 71.1107C37.1815 70.8047 36.3593 69.1107 35.7402 68.1411C35.6065 67.9317 35.2564 67.2295 34.9621 66.5806C34.4597 65.4729 34.1457 65.151 33.9947 65.5892C33.8706 65.9493 34.3229 67.0064 35.199 68.4035C35.6834 69.1758 36.0797 69.8751 36.0797 69.9574C36.0797 70.0397 36.2568 70.3594 36.4732 70.6679C36.6896 70.9764 36.8667 71.3219 36.8667 71.4356C36.8667 71.8958 37.9632 73.8994 38.229 73.9248C38.2424 73.926 38.148 73.5367 38.0192 73.0596V73.0596ZM48.9864 73.6336L49.6947 73.5037L48.9077 73.4757C48.4749 73.4603 47.802 73.4003 47.4124 73.3424C46.7496 73.2438 45.9999 73.4078 45.9971 73.6519C45.9941 73.9064 47.5519 73.8969 48.9864 73.6336ZM55.4827 73.5264C56.1795 73.4136 56.3621 73.2278 55.9118 73.0896C55.5141 72.9675 54.5908 73.2507 54.3113 73.5806C54.1257 73.7996 54.1466 73.816 54.4954 73.725C54.7118 73.6686 55.1561 73.5792 55.4827 73.5264ZM57.8008 73.1658C57.8008 73.0245 57.6855 72.9943 56.9887 72.9529C56.845 72.9444 56.6758 72.8879 56.6126 72.8273C56.4047 72.6282 56.2057 72.8815 56.3958 73.1032C56.6044 73.3464 57.8008 73.3996 57.8008 73.1658ZM122.795 73.1729C122.571 73.1075 121.757 73.0057 120.984 72.9468C120.212 72.8879 119.297 72.7666 118.95 72.6773C118.604 72.588 117.86 72.4965 117.298 72.474C116.735 72.4515 116.071 72.3567 115.823 72.2633C115.484 72.136 115.315 72.1384 115.147 72.2729C114.76 72.5837 115.163 72.7379 116.535 72.8048C118.256 72.8887 121.451 73.177 121.534 73.256C121.57 73.2901 121.96 73.3122 122.4 73.305C123.038 73.2945 123.118 73.2677 122.795 73.1729V73.1729ZM42.2841 72.7688C42.6654 72.6273 42.5801 72.2694 42.1396 72.1625C41.1794 71.9293 41.8851 71.4239 42.9542 71.579C43.4423 71.6498 43.7401 71.6115 44.0044 71.4439C44.3126 71.2486 44.5523 71.2362 45.4601 71.3685C46.7672 71.5592 48.9864 71.6122 48.9864 71.4528C48.9864 71.3479 48.4645 71.2698 48.1417 71.3265C48.0666 71.3397 47.7715 71.2759 47.4859 71.1847C47.2002 71.0935 46.3586 71.0189 45.6155 71.0189C44.398 71.0189 44.2645 70.9906 44.2645 70.7326C44.2645 70.5551 44.1345 70.4277 43.9226 70.3976C43.4869 70.3355 43.3953 70.0695 43.7061 69.7688C43.9858 69.4982 43.8762 69.0774 43.4485 68.7796C43.2913 68.6702 43.1627 68.5023 43.1627 68.4066C43.1627 68.0781 42.1765 65.7049 42.04 65.7049C41.9649 65.7049 41.9013 65.585 41.8986 65.4384C41.8959 65.2919 41.7191 64.8979 41.5059 64.5629C41.2926 64.2279 41.1177 63.8465 41.1173 63.7153C41.1167 63.5091 40.6469 62.5358 40.0568 61.5177C39.9597 61.3502 39.8401 61.1104 39.7911 60.9848C39.742 60.8591 39.6352 60.6536 39.5537 60.528C39.4721 60.4024 39.3127 60.0769 39.1994 59.8047C39.0861 59.5326 38.9441 59.3099 38.8838 59.3099C38.6163 59.3099 38.6514 59.5992 39.0106 60.3553C39.2305 60.8181 39.3552 61.2927 39.3006 61.4591C39.1603 61.8868 39.4446 62.6226 40.7411 65.1872C41.3804 66.4517 41.9035 67.6031 41.9035 67.7457C41.9035 67.8883 42.0805 68.2571 42.297 68.5652C42.5134 68.8733 42.6905 69.2313 42.6905 69.3607C42.6905 69.4901 42.8034 69.752 42.9415 69.9427C43.096 70.1561 43.1554 70.4325 43.0959 70.6617C42.9154 71.3572 42.5481 71.0617 42.2339 69.9683C42.1256 69.5914 41.912 69.009 41.7594 68.674C41.6068 68.339 41.322 67.6881 41.1265 67.2275C40.7337 66.3017 39.8961 64.6047 37.981 60.8547C37.2816 59.4852 36.7093 58.2608 36.7093 58.1339C36.7093 58.007 36.4694 57.5174 36.1763 57.0458C35.8831 56.5743 35.4574 55.7908 35.2302 55.3048C35.003 54.8188 34.6841 54.283 34.5215 54.1142C34.3589 53.9454 34.1814 53.592 34.127 53.3288C34.0726 53.0656 33.7105 52.2458 33.3225 51.507C32.9344 50.7681 32.6169 50.0857 32.6169 49.9905C32.6169 49.8953 32.5227 49.7092 32.4075 49.577C32.2923 49.4448 32.0715 49.0049 31.9168 48.5995C31.7621 48.194 31.3605 47.4245 31.0244 46.8893C30.6883 46.3541 30.4122 45.8294 30.4108 45.7232C30.4094 45.617 30.2007 45.3023 29.9469 45.0238C29.6932 44.7453 29.4024 44.2657 29.3009 43.958C29.1993 43.6502 28.9593 43.2271 28.7675 43.0177C28.5758 42.8084 28.1832 42.1575 27.895 41.5712C27.6068 40.985 27.2731 40.3341 27.1534 40.1248C27.0336 39.9154 26.7986 39.47 26.6311 39.135C26.4636 38.8001 25.9041 37.8751 25.3878 37.0795C24.8714 36.2839 24.4452 35.5768 24.4406 35.5082C24.4359 35.4395 24.2224 35.0884 23.966 34.7279C23.517 34.0966 23.0226 32.9555 23.0178 32.5395C23.0166 32.4292 22.8385 32.1145 22.6221 31.84C22.4056 31.5655 22.2286 31.2569 22.2286 31.1543C22.2286 30.9645 21.3881 29.7077 21.0162 29.3413C20.9039 29.2306 20.812 29.0506 20.812 28.9412C20.812 28.8318 20.7146 28.6641 20.5955 28.5685C20.4764 28.4729 20.2883 28.0706 20.1775 27.6744C19.9268 26.7782 19.5929 26.1166 19.3913 26.1166C19.1054 26.1166 19.4248 27.0233 20.2673 28.6032C20.3937 28.8403 20.4972 29.1353 20.4972 29.2587C20.4972 29.3822 20.7451 29.9351 21.0481 30.4874C21.6678 31.6172 21.7003 31.7503 21.3563 31.7503C21.0976 31.7503 20.4657 30.5149 19.8682 28.8408C19.6771 28.3055 19.1801 27.1824 18.7637 26.345C17.4884 23.7804 16.877 22.455 16.877 22.2554C16.877 22.1505 16.6999 21.8325 16.4835 21.5487C16.2671 21.2649 16.09 20.9482 16.09 20.8449C16.09 20.7417 15.7416 20.0071 15.3158 19.2126C14.8901 18.4181 14.5785 17.7324 14.6234 17.6889C14.6684 17.6454 14.5325 17.3827 14.3214 17.105C13.9576 16.6265 13.4142 15.6002 13.4142 15.3917C13.4142 15.3386 13.0955 14.6527 12.7059 13.8675C12.3163 13.0823 11.9976 12.2699 11.9976 12.0621C11.9976 11.6484 11.6481 11.4412 11.1884 11.5823C10.8743 11.6787 10.7954 12.0304 11.0532 12.1845C11.1398 12.2363 11.2106 12.4103 11.2106 12.5712C11.2106 12.8405 11.8469 14.5718 12.1729 15.1897C12.2496 15.3351 12.3124 15.5578 12.3124 15.6845C12.3124 15.8113 12.3717 15.915 12.4442 15.915C12.5842 15.915 13.3425 17.5393 13.2398 17.6191C13.2065 17.6449 13.3432 17.8887 13.5436 18.1608C13.7439 18.433 13.8655 18.6557 13.8138 18.6557C13.7383 18.6557 14.4195 20.0689 15.1373 21.4014C15.2064 21.5298 15.3128 21.8724 15.3737 22.1627C15.4346 22.4531 15.5993 22.999 15.7397 23.3758C15.9652 23.9811 16.1268 24.3091 16.8274 25.5837C17.0532 25.9945 17.6382 27.3803 18.0071 28.3783C18.3545 29.3183 19.6869 31.598 19.8888 31.598C19.9637 31.598 20.025 31.7653 20.025 31.9697C20.025 32.1741 20.1046 32.389 20.2019 32.4472C20.2993 32.5054 20.5809 32.984 20.8279 33.5108C21.0748 34.0376 21.3503 34.5126 21.4401 34.5663C21.53 34.62 21.7536 34.9505 21.9372 35.3007C22.1207 35.651 22.3292 35.974 22.4005 36.0187C22.4718 36.0633 22.7845 36.6115 23.0953 37.2368C24.1139 39.2862 24.7329 40.349 25.0573 40.6059C25.2329 40.745 25.3765 40.946 25.3765 41.0527C25.3765 41.1594 25.5312 41.5558 25.7203 41.9336C25.9173 42.3272 26.0497 42.8554 26.0305 43.1706C25.9721 44.1289 26.5029 45.0504 27.1837 45.1726C27.4651 45.2232 28.3652 46.4255 28.8761 47.4334C28.9822 47.6427 29.1168 47.8483 29.1753 47.8902C29.2337 47.932 29.7143 48.8228 30.2433 49.8696C30.7723 50.9164 31.3852 52.0983 31.6053 52.4961C31.8254 52.8939 31.9635 53.2194 31.9122 53.2194C31.772 53.2194 32.1326 53.8334 32.6422 54.4625C32.8908 54.7693 33.344 55.6258 33.6494 56.3657C33.9548 57.1057 34.3432 58.0016 34.5126 58.3566C34.6819 58.7116 34.8205 59.0451 34.8205 59.0977C34.8205 59.1503 35.2158 59.9857 35.699 60.9543C36.1821 61.9228 36.6889 62.9939 36.8252 63.3345C36.9614 63.6752 37.1656 64.0592 37.2788 64.188C37.392 64.3168 37.8125 65.0705 38.2134 65.8629C38.6142 66.6553 39.0761 67.5435 39.2399 67.8366C39.851 68.9301 40.3295 70.0861 40.3295 70.4688C40.3295 70.6861 40.3898 70.8999 40.4635 70.944C40.5373 70.9881 40.7243 71.3518 40.8792 71.7524C41.3073 72.8597 41.5555 73.0393 42.2841 72.7688V72.7688ZM81.8711 72.6288C83.2133 72.3992 83.5999 72.269 83.0503 72.2318C81.9175 72.155 79.8367 72.4826 79.8367 72.7378C79.8367 72.9151 80.362 72.887 81.8711 72.6288V72.6288ZM45.9503 72.4634C46.0047 72.3028 44.9083 72.0354 44.7648 72.1742C44.7279 72.2099 44.7414 72.3492 44.7948 72.4838C44.906 72.7641 45.8541 72.7474 45.9503 72.4634V72.4634ZM62.2473 72.4506C62.5312 72.2965 62.3412 72.0717 62.0112 72.1714C61.8164 72.2303 61.5331 72.2768 61.3816 72.2748C61.1025 72.2711 61.0219 72.4245 61.2083 72.6047C61.3031 72.6965 61.9789 72.5962 62.2473 72.4506ZM114.451 72.4617C114.747 72.2042 109.847 71.6834 108.861 71.8674C108.062 72.0166 108.505 72.2046 109.716 72.2298C110.178 72.2394 110.849 72.3237 111.208 72.4171C111.566 72.5105 112.18 72.5468 112.572 72.4979C112.964 72.449 113.39 72.4749 113.52 72.5555C113.726 72.6833 114.259 72.6296 114.451 72.4617V72.4617ZM53.2362 72.1849C53.6258 72.1423 54.6882 72.0665 55.5972 72.0166C59.3769 71.8092 60.7364 71.6939 60.9544 71.5625C61.0812 71.4861 61.4328 71.4057 61.7358 71.3838C63.4433 71.2608 64.9221 71.0406 65.1228 70.8795C65.2488 70.7783 65.4612 70.7361 65.5947 70.7856C65.7283 70.8352 66.101 70.7823 66.4231 70.6681C67.5495 70.2687 70.0015 69.6092 70.4705 69.5795C71.0607 69.5421 73.055 69.0775 73.4154 68.8934C73.572 68.8134 73.7196 68.8128 73.7702 68.892C73.8196 68.9693 74.0429 68.972 74.2891 68.8984C74.5267 68.8273 75.217 68.6924 75.823 68.5986C77.5254 68.3351 77.6063 68.3104 77.6999 68.0251C77.7481 67.878 77.9211 67.6897 78.0843 67.6067C78.2474 67.5237 78.5977 67.3364 78.8627 67.1905C79.3314 66.9323 79.9235 66.9685 79.7471 67.2445C79.5841 67.4997 80.0971 67.5472 81.1106 67.3708C82.7486 67.0857 83.8096 66.9161 84.48 66.8322C84.8263 66.7888 85.2512 66.6959 85.4244 66.6257C85.5975 66.5555 86.3691 66.4241 87.1389 66.3337C87.9581 66.2376 88.6487 66.0731 88.804 65.9371C89.0793 65.6961 89.5953 65.6192 89.5957 65.819C89.5958 65.8818 90.3926 65.9366 91.3664 65.9407C94.0708 65.9521 96.3636 66.8494 96.3636 67.8965C96.3636 68.2784 95.5538 67.9262 95.3507 67.4558C95.1483 66.9873 95.0524 66.9229 94.556 66.9229C94.0393 66.9229 94.0059 66.9488 94.161 67.2292C94.2542 67.3976 94.3136 67.6203 94.2931 67.724C94.2725 67.8278 94.3123 68.0744 94.3815 68.2722C94.5835 68.8499 94.1609 69.1228 93.015 69.1546C91.3159 69.2018 91.0102 69.3812 91.8885 69.8159C92.1423 69.9415 92.3777 70.0598 92.4117 70.0787C92.4457 70.0976 92.3814 70.2204 92.2689 70.3516C91.9787 70.6898 92.2714 70.9229 93.0106 70.9422C93.5926 70.9574 93.6077 70.972 93.5574 71.4694C93.5195 71.8445 93.5615 71.9613 93.7148 71.9072C93.8298 71.8666 93.9062 71.7563 93.8846 71.6621C93.8312 71.4296 93.9436 71.4463 94.4066 71.7398C94.8913 72.047 95.0076 71.9518 94.8728 71.3581C94.8015 71.044 94.6974 70.9256 94.543 70.9829C94.4189 71.0289 94.3174 70.9968 94.3174 70.9114C94.3174 70.8261 94.6185 70.7083 94.9864 70.6496C95.3543 70.5909 95.7612 70.4872 95.8906 70.419C96.0391 70.3407 96.3459 70.4147 96.7228 70.6196C97.2552 70.9091 97.3745 70.9226 97.8254 70.7448C98.9235 70.3117 99.8499 70.214 101.138 70.3956C101.824 70.4923 102.44 70.5381 102.509 70.4973C102.577 70.4566 103.896 70.3885 105.44 70.3461C106.984 70.3038 109.133 70.2339 110.215 70.1909C111.297 70.1478 112.501 70.1803 112.891 70.2629C113.76 70.4474 116.806 70.8252 119.029 71.0243C119.938 71.1057 121.78 71.1401 123.122 71.1007C124.463 71.0613 127.324 71.0329 129.478 71.0376C135.531 71.0508 138.285 70.7251 138.717 69.9452C139.028 69.3829 138.616 69.1517 137.938 69.5078C136.841 70.0835 130.739 70.4246 127.354 70.0995C126.368 70.0049 124.959 69.9071 124.223 69.8822C122.813 69.8346 121.153 69.7278 119.58 69.5835C117.482 69.391 116.847 69.3454 115.566 69.2945C114.83 69.2653 113.662 69.1536 112.969 69.0462C111.115 68.7587 106.562 68.8066 104.548 69.1347C103.639 69.2828 102.412 69.4294 101.821 69.4605C101.23 69.4916 100.49 69.621 100.175 69.748C99.2919 70.1051 98.4176 69.7047 98.4122 68.9405C98.4092 68.5037 98.8117 68.4908 99.0492 68.92C99.2502 69.2835 99.3812 69.2801 102.581 68.83C106.614 68.2626 110.682 67.9596 111.613 68.1573C111.906 68.2195 112.313 68.2088 112.518 68.1334C112.75 68.0479 113.053 68.0561 113.322 68.1552C113.686 68.289 117.147 68.5121 118.163 68.4672C118.337 68.4595 118.691 68.5184 118.95 68.5979C119.21 68.6775 120.06 68.7745 120.839 68.8136C122.245 68.884 122.251 68.8829 121.558 68.6666C121.174 68.5467 120.805 68.3629 120.738 68.2581C120.564 67.9855 120.857 67.7507 121.114 67.957C121.68 68.4112 124.458 68.7281 128.867 68.8415C130.598 68.886 132.475 68.9382 133.038 68.9575C135.873 69.0548 137.602 68.7469 137.602 68.1448C137.602 67.6642 136.582 67.3974 135.966 67.7166C135.736 67.8356 135.633 67.8328 135.59 67.7064C135.551 67.5933 135.316 67.5655 134.919 67.6269C134.584 67.6789 134.182 67.6707 134.027 67.6089C133.873 67.547 132.684 67.5042 131.385 67.5138C130.086 67.5233 128.28 67.4614 127.371 67.3763C124.041 67.0641 117.765 66.9279 113.678 67.0792C107.722 67.2995 106.607 67.386 105.608 67.7046C104.013 68.2129 101.681 68.2861 102.577 67.7996C103.254 67.4321 106.45 66.9454 108.709 66.8658C110.482 66.8034 110.988 66.6616 110.752 66.2933C110.713 66.232 111.09 66.2077 111.589 66.2393C112.089 66.2709 113.843 66.3371 115.488 66.3864C117.132 66.4356 118.584 66.5132 118.714 66.5588C118.944 66.6393 123.188 66.8241 128.788 66.9974C131.828 67.0915 132.014 66.9159 129.176 66.6321C128.227 66.5372 127.131 66.3956 126.742 66.3173C126.352 66.239 125.502 66.0997 124.853 66.0076C124.204 65.9156 123.318 65.7725 122.885 65.6897C119.784 65.0967 110.569 64.8523 108.483 65.3078C107.834 65.4496 106.913 65.6017 106.437 65.6458C104.345 65.8398 104.24 66.3139 106.289 66.3139C107.063 66.3139 107.696 66.3774 107.696 66.455C107.696 66.6265 105.112 66.7399 104.515 66.5947C104.059 66.4837 102.624 66.7879 102.273 67.0698C102.073 67.2307 100.714 67.493 99.5116 67.603C99.2086 67.6307 98.9076 67.6604 98.8427 67.6689C98.7777 67.6774 98.7246 67.7871 98.7246 67.9127C98.7246 68.0383 98.6242 68.1411 98.5014 68.1411C98.3786 68.1411 98.1661 68.1827 98.0292 68.2335C97.8658 68.2942 97.7802 68.2418 97.7802 68.0813C97.7802 67.9467 97.8397 67.8366 97.9124 67.8366C98.0868 67.8366 98.4098 67.1399 98.4098 66.7636C98.4098 66.4145 98.8073 66.3627 98.9389 66.6946C99.0631 67.0075 99.4064 66.9743 100.692 66.5251C101.298 66.3134 102.29 66.0469 102.896 65.9328C104.302 65.6681 105.27 65.454 105.964 65.2542C106.266 65.1671 106.705 65.0958 106.938 65.0958C107.172 65.0958 107.405 65.0296 107.457 64.9485C107.517 64.8549 106.789 64.8309 105.46 64.8827C102.947 64.9807 101.848 64.999 101.637 64.9466C100.969 64.7809 99.7909 64.9658 99.7146 65.2481C99.6094 65.6373 99.3236 65.636 98.9573 65.2445C98.5456 64.8043 98.7852 64.6634 100.145 64.5461C101.193 64.4556 101.373 64.3923 101.794 63.9651C102.191 63.5623 102.455 63.4569 103.447 63.3052C104.096 63.2058 105.052 63.047 105.571 62.9521C107.382 62.6213 108.662 62.6513 116.196 63.2007C118.34 63.3571 121.195 63.9056 123.043 64.5162C123.303 64.6021 123.929 64.7333 124.435 64.8078C124.941 64.8823 125.418 64.9812 125.495 65.0275C125.573 65.0738 125.89 64.9955 126.199 64.8534C126.675 64.6352 126.888 64.6213 127.578 64.7639C128.027 64.8567 128.642 64.9283 128.945 64.923C129.248 64.9177 130.169 64.9901 130.991 65.0839C133.24 65.3403 136.186 65.074 136.186 64.6142C136.186 64.4072 134.753 64.2179 134.173 64.3482C133.255 64.5546 132.312 64.5139 132.093 64.2584C131.935 64.0743 131.939 64.0296 132.113 64.0277C138.089 63.963 138.622 63.9065 138.82 63.3163C139.075 62.5578 137.703 62.2336 136.018 62.6539C134.929 62.9254 134.364 62.9819 133.327 62.9228C128.072 62.6231 126.169 62.686 126.354 63.1529C126.458 63.4154 126.586 63.4541 128.275 63.7359C129.151 63.882 129.377 63.9697 129.252 64.115C129.08 64.3165 128.849 64.3044 126.191 63.9534C125.325 63.8391 124.42 63.7838 124.178 63.8305C123.903 63.8837 123.64 63.83 123.47 63.6861C123.092 63.3655 122.759 63.2868 121.065 63.1192C118.976 62.9124 117.398 62.6879 116.117 62.4152C115.464 62.276 114.407 62.1932 113.52 62.2117C111.501 62.2537 108.597 62.1949 108.454 62.1091C107.87 61.7597 109.112 61.3805 110.915 61.358C113.052 61.3314 113.137 61.3249 113.006 61.198C112.906 61.1014 106.515 60.917 104.986 60.9666C104.49 60.9827 103.782 61.1289 103.412 61.2915C103.041 61.4541 102.429 61.5886 102.051 61.5905C101.674 61.5923 101.107 61.7215 100.792 61.8776C99.7904 62.3742 98.882 62.61 98.882 62.3734C98.882 62.1209 101.422 60.9848 101.987 60.9848C102.289 60.9848 102.962 60.8779 103.483 60.7473C104.48 60.4972 114.352 60.5027 114.975 60.7537C115.471 60.9534 115.092 61.137 114.185 61.137C113.421 61.137 113.328 61.1669 113.526 61.3477C113.934 61.7207 117.057 61.7829 117.392 61.4247C117.654 61.1454 117.631 61.137 116.614 61.137C116.02 61.137 115.566 61.071 115.566 60.9848C115.566 60.901 115.867 60.8282 116.235 60.823C123.247 60.7231 127.486 60.5133 128.402 60.2211C128.681 60.1321 129.147 60.0718 129.439 60.087C129.73 60.1023 130.252 60.0032 130.598 59.8669C130.944 59.7305 131.655 59.5962 132.177 59.5685C132.699 59.5407 133.362 59.4037 133.652 59.2641C133.941 59.1245 134.232 59.0426 134.298 59.0821C134.547 59.2309 136.894 58.2961 137.484 57.8132C137.936 57.4436 137.809 57.096 136.8 55.9298C136.272 55.3201 135.739 54.632 135.615 54.4009C135.492 54.1698 135.339 53.9807 135.276 53.9807C135.212 53.9807 135.073 53.7922 134.966 53.562C134.859 53.3317 134.523 52.9884 134.219 52.7992C133.916 52.61 133.667 52.3502 133.667 52.2218C133.667 52.0934 133.594 51.9056 133.504 51.8045C133.414 51.7034 133.095 51.355 132.796 51.0305C132.496 50.7059 132.251 50.3695 132.251 50.283C132.251 50.1964 131.978 49.7764 131.645 49.3496C131.312 48.9228 130.921 48.3684 130.777 48.1177C130.426 47.5066 130.181 47.1287 129.85 46.6913C129.699 46.4907 129.575 46.1971 129.575 46.0389C129.575 45.7446 127.571 41.8998 127.033 41.1626C126.869 40.9378 126.639 40.4925 126.521 40.1729C126.403 39.8533 125.936 38.9752 125.483 38.2215C124.281 36.2198 123.279 34.3557 123.279 34.1201C123.279 34.0071 123.186 33.8801 123.072 33.8379C122.959 33.7958 122.636 33.3088 122.354 32.7558C122.073 32.2028 121.78 31.7503 121.704 31.7503C121.628 31.7503 121.405 31.2535 121.209 30.6464C121.012 30.0392 120.665 29.3027 120.436 29.0096C120.01 28.4627 117.771 24.1818 117.768 23.9086C117.767 23.825 117.194 22.7287 116.495 21.4726C115.795 20.2164 115.197 19.0641 115.165 18.9119C115.134 18.7598 114.901 18.3094 114.648 17.9112C114.274 17.3234 113.985 16.5903 113.922 16.0672C113.917 16.0254 113.723 15.6142 113.491 15.1537C112.516 13.2182 111.066 9.53909 110.741 8.17687C110.132 5.62285 108.483 3.19487 106.741 2.28983C106.276 2.04824 102.525 1.72741 100.579 1.76287C99.8623 1.77594 98.7777 1.7133 98.1693 1.62366C97.5609 1.53402 96.6755 1.46448 96.2018 1.46913C95.7281 1.47378 93.9948 1.33738 92.3499 1.16603C90.7051 0.994674 88.9698 0.822544 88.4937 0.783514C88.0175 0.744483 86.8488 0.630772 85.8966 0.530822C83.8153 0.312373 77.2252 0.410957 76.7287 0.667967C76.549 0.761002 76.0593 0.864068 75.6403 0.897003C74.816 0.961806 72.4435 1.79179 71.2684 2.4264C70.8672 2.64308 70.4374 2.82037 70.3132 2.82037C70.189 2.82037 69.9308 3.02523 69.7394 3.27562C69.5481 3.52601 69.2482 3.77487 69.0731 3.82863C68.6931 3.94532 68.3466 4.25806 68.3466 4.48438C68.3466 4.57411 68.2757 4.64752 68.1892 4.64752C67.7945 4.64752 68.3906 6.04085 69.5246 7.76891C69.7993 8.18763 70.1469 8.91754 70.297 9.39092C70.447 9.86431 70.7869 10.5828 71.0523 10.9875C71.3176 11.3923 71.6345 11.9972 71.7565 12.3317C71.8785 12.6662 72.2198 13.2838 72.5149 13.7042C72.81 14.1245 73.1739 14.7768 73.3234 15.1537C73.4729 15.5305 73.7247 16.0022 73.8828 16.202C74.0409 16.4017 74.1703 16.6799 74.1703 16.8203C74.1703 17.0471 76.112 20.8998 76.8219 22.0816C76.9728 22.3328 77.3715 23.1893 77.7078 23.9849C78.0442 24.7805 78.4481 25.6369 78.6053 25.8882C78.7625 26.1394 78.8914 26.4493 78.8917 26.5768C78.8921 26.7044 79.1402 27.1728 79.4432 27.6179C79.7462 28.063 79.9941 28.5155 79.9941 28.6236C79.9941 28.7316 80.0958 28.9017 80.2201 29.0014C80.3444 29.1012 80.4948 29.4008 80.5545 29.6672C80.6141 29.9336 80.7858 30.3228 80.9361 30.5322C81.3233 31.0716 82.1977 32.8477 82.1977 33.0949C82.1977 33.2088 82.3399 33.4953 82.5138 33.7315C82.6876 33.9676 82.8767 34.3875 82.934 34.6646C82.9913 34.9416 83.1678 35.3029 83.3262 35.4674C83.4847 35.632 83.6143 35.8907 83.6143 36.0424C83.6143 36.1941 83.6869 36.3182 83.7756 36.3182C83.8643 36.3182 83.9991 36.4723 84.0752 36.6608C84.3315 37.2952 84.8842 38.3694 85.27 38.9828C85.4806 39.3178 85.7238 39.7462 85.8104 39.9349C85.897 40.1236 86.1112 40.5823 86.2864 40.9543C86.4615 41.3263 86.6049 41.6981 86.6049 41.7804C86.6049 41.8628 86.6955 42.0207 86.8063 42.1314C87.0793 42.4041 87.9536 44.338 88.1012 44.9956C88.1668 45.2879 88.3892 45.7411 88.5955 46.0026C88.8017 46.2642 89.1487 46.9158 89.3666 47.4507C89.5845 47.9855 89.8978 48.6971 90.0627 49.0321C90.2277 49.3671 90.5784 50.1074 90.842 50.6771C91.1056 51.2469 91.4287 51.817 91.56 51.9441C91.9022 52.2751 92.5326 53.3795 92.6424 53.8406C92.6939 54.0567 93.0209 54.6391 93.369 55.1349C93.7171 55.6306 94.0037 56.1733 94.0058 56.3407C94.008 56.5082 94.2561 57.0875 94.5571 57.6279C95.1035 58.6088 95.2227 59.0053 94.9714 59.0053C94.6434 59.0053 93.8452 57.7329 93.8452 57.2101C93.8452 57.0519 93.4913 56.3119 93.0586 55.5657C92.626 54.8196 92.2718 54.1138 92.2716 53.9974C92.2715 53.8811 92.1763 53.7098 92.0603 53.6168C91.9444 53.5238 91.7227 53.1052 91.5678 52.6864C91.4129 52.2677 91.0502 51.6262 90.762 51.2609C90.4737 50.8957 90.1529 50.3477 90.049 50.0434C89.8797 49.547 89.5594 48.9168 88.7611 47.5095C88.3635 46.8085 87.2345 44.3988 87.2345 44.2512C87.2345 44.1792 86.9879 43.6495 86.6865 43.0741C86.3851 42.4988 86.1372 41.9757 86.1356 41.9117C86.1313 41.7426 85.3292 40.161 84.8432 39.3634C84.6136 38.9866 84.0896 37.9246 83.6788 37.0034C83.268 36.0822 82.8021 35.2059 82.6435 35.0561C82.4849 34.9063 82.3551 34.7125 82.3551 34.6255C82.3551 34.5384 82.1072 33.9686 81.8042 33.3593C81.5012 32.7499 81.2533 32.1758 81.2533 32.0837C81.2533 31.9915 81.0747 31.6614 80.8563 31.3502C80.638 31.039 80.3542 30.4344 80.2257 30.0068C80.0972 29.5792 79.6745 28.8201 79.2864 28.3201C78.8983 27.82 78.5801 27.2878 78.5792 27.1375C78.5782 26.9872 78.2294 26.165 77.804 25.3104C77.3786 24.4557 76.9416 23.4482 76.8329 23.0713C76.7242 22.6945 76.522 22.2491 76.3837 22.0816C75.761 21.3277 75.4416 20.7873 75.2838 20.2204C75.1902 19.8841 74.9842 19.4459 74.8259 19.2466C74.4775 18.8077 74.2652 18.4122 72.5478 15.0014C71.8098 13.5359 71.1554 12.1655 71.0935 11.9561C71.0317 11.7468 70.8487 11.3936 70.6869 11.1713C70.5251 10.949 70.3927 10.72 70.3927 10.6624C70.3927 10.6048 70.2511 10.3835 70.0779 10.1705C69.9048 9.9576 69.7631 9.6858 69.7631 9.56654C69.7631 8.92703 67.8883 5.80467 67.6445 6.03818C67.4991 6.17745 68.1357 7.92277 68.5716 8.57992C68.7757 8.88756 69.0667 9.51612 69.2182 9.97672C69.3697 10.4373 69.5898 10.9493 69.7071 11.1145C69.8245 11.2797 69.9205 11.513 69.9205 11.633C69.9205 11.7531 70.0976 12.0758 70.314 12.3503C70.5305 12.6248 70.7075 12.895 70.7075 12.9507C70.7075 13.1434 71.2414 14.1656 71.5797 14.6207C71.7665 14.872 72.0332 15.3628 72.1724 15.7115C72.3116 16.0601 72.7827 16.948 73.2192 17.6845C73.6558 18.421 74.0129 19.1576 74.0129 19.3215C74.0129 19.4854 74.2849 20.1049 74.6174 20.6983C75.2224 21.7781 75.7086 23.1566 75.5415 23.3183C75.4926 23.3656 75.1974 22.8668 74.8854 22.21C74.5735 21.5532 74.2126 20.9386 74.0833 20.8442C73.9541 20.7498 73.7417 20.2702 73.6112 19.7784C73.4807 19.2865 73.2344 18.6984 73.0639 18.4715C72.8933 18.2446 72.7537 18.0102 72.7537 17.9506C72.7537 17.891 72.6594 17.7341 72.544 17.6018C72.4287 17.4696 72.173 16.9846 71.9758 16.524C71.7786 16.0634 71.5188 15.5784 71.3985 15.4462C71.2782 15.314 71.1797 15.1242 71.1797 15.0244C71.1797 14.9247 71.0157 14.5875 70.8153 14.2751C70.6149 13.9627 70.2841 13.296 70.0802 12.7936C69.8763 12.2911 69.584 11.7037 69.4306 11.4883C69.2773 11.2728 68.9758 10.6442 68.7607 10.0913C68.5456 9.53838 68.2256 8.82392 68.0497 8.50359C67.5712 7.63229 66.6152 5.56963 66.6152 5.40851C66.6152 5.26693 65.5328 4.49526 65.3342 4.49526C65.2758 4.49526 65.2651 4.63229 65.3104 4.79978C65.4406 5.28143 65.1149 5.15621 64.5652 4.51326C63.0335 2.72179 54.1442 1.12689 51.2687 2.12763C50.9225 2.24814 50.0725 2.38563 49.3799 2.43315C48.6874 2.48067 47.6604 2.58687 47.0976 2.66916C46.5349 2.75144 45.6142 2.88085 45.0515 2.95675C44.1164 3.08285 43.2298 3.2889 41.7471 3.72462C41.4447 3.81349 40.9265 3.88621 40.5956 3.88621C40.2647 3.88621 39.8747 3.94766 39.7289 4.02278C39.5831 4.09789 38.8354 4.23347 38.0674 4.32405C37.2993 4.41464 36.5797 4.56198 36.4683 4.65147C36.3568 4.74096 35.4624 4.84838 34.4806 4.89017C33.4989 4.93196 32.3592 5.06714 31.948 5.19056C31.1879 5.41874 22.4606 5.41326 22.0777 5.18437C21.9913 5.13272 21.2639 5.09035 20.4613 5.09021C19.6586 5.09006 18.7186 5.01977 18.3723 4.93399C16.1923 4.39398 15.7121 4.4806 15.8601 5.38714C15.8963 5.60844 15.9731 6.09782 16.0309 6.47467C16.0887 6.85152 16.2319 7.29501 16.3491 7.4602C16.4663 7.62538 16.5622 7.89459 16.5622 8.05844C16.5622 8.37584 16.653 8.70037 17.1912 10.3057C17.3782 10.8635 17.5579 11.4802 17.5905 11.6761C17.666 12.1295 18.0378 13.3163 18.4414 14.3923C18.6142 14.8529 18.7578 15.3471 18.7606 15.4904C18.7657 15.7479 19.1492 16.5992 20.6665 19.7215C21.0938 20.6009 21.443 21.4166 21.4425 21.5343C21.442 21.652 21.6363 21.9894 21.8744 22.2841C22.1125 22.5788 22.4489 23.0754 22.6221 23.3876C22.7952 23.6999 23.4406 24.6661 24.0562 25.5349C24.6719 26.4036 25.2251 27.2652 25.2856 27.4495C25.346 27.6338 25.6486 28.0774 25.9579 28.4352C26.2672 28.793 26.5963 29.257 26.6892 29.4664C26.7822 29.6757 27.0498 30.1246 27.284 30.464C27.5182 30.8033 27.9198 31.5003 28.1764 32.0128C28.433 32.5253 28.7843 33.1384 28.957 33.3753C29.1297 33.6121 29.4635 34.217 29.6987 34.7194C29.9339 35.2219 30.2871 35.8386 30.4836 36.0898C30.6801 36.341 31.0375 36.9234 31.2778 37.384C31.5181 37.8446 31.8823 38.4152 32.0871 38.6519C32.2919 38.8886 32.4595 39.1435 32.4595 39.2183C32.4595 39.3462 32.7937 40.0934 33.6481 41.8758C33.8488 42.2945 34.0607 42.8255 34.119 43.0558C34.1773 43.2861 34.2921 43.4745 34.374 43.4745C34.5068 43.4745 34.7662 43.9759 35.5554 45.7585C35.8147 46.3441 35.8882 46.479 36.6749 47.814C36.971 48.3165 37.3535 49.0702 37.5249 49.4889C37.7852 50.1249 38.8839 52.2975 40.451 55.2749C40.6273 55.6099 41.2051 56.7404 41.7349 57.7872C42.8892 60.0678 43.2969 60.7908 43.726 61.3186C43.9039 61.5373 44.315 62.3568 44.6395 63.1396C44.9641 63.9224 45.3217 64.7688 45.4343 65.0203C45.5469 65.2719 45.6892 65.7173 45.7505 66.01C45.8969 66.7091 46.2453 67.4423 46.546 67.6837C46.8188 67.9027 50.1486 68.6194 50.4458 68.5231C50.5521 68.4887 51.0143 68.425 51.4728 68.3815C51.9313 68.3381 52.3575 68.2721 52.4198 68.2348C52.4821 68.1976 52.8506 68.2235 53.2388 68.2924C53.6269 68.3614 54.3695 68.3702 54.8889 68.312C55.4083 68.2539 56.1166 68.2654 56.4629 68.3377C56.8401 68.4164 57.6604 68.4048 58.5091 68.3087C59.8776 68.1539 60.2855 68.1162 62.8376 67.9086C63.4868 67.8558 64.266 67.7918 64.569 67.7664C64.872 67.7409 65.308 67.6477 65.538 67.5591C65.768 67.4706 66.4055 67.3543 66.9546 67.3008C68.4004 67.1599 74.1254 66.0386 74.6177 65.7999C75.1701 65.5321 76.5124 65.2188 76.6795 65.3187C76.7521 65.3621 77.1203 65.2345 77.4978 65.0352C77.8752 64.8359 78.5736 64.589 79.0497 64.4866C79.5258 64.3843 80.2011 64.2054 80.5503 64.0891C80.8994 63.9729 81.3092 63.8777 81.4608 63.8777C81.6125 63.8777 81.8977 63.7756 82.0947 63.6507C82.3075 63.5159 82.8642 63.4161 83.4664 63.4048C84.0239 63.3943 84.7188 63.2909 85.0107 63.175C85.3027 63.059 85.812 62.9642 86.1426 62.9642C86.4732 62.9642 86.7816 62.9049 86.8279 62.8324C86.9752 62.6018 88.8341 62.313 90.4612 62.268C91.3268 62.2441 92.1613 62.1773 92.3155 62.1195C92.4696 62.0617 92.7955 62.0531 93.0397 62.1003C94.2477 62.334 94.505 61.5621 93.6331 60.3193C93.4081 59.9985 93.1777 59.486 93.1212 59.1804C93.0646 58.8747 92.933 58.5219 92.8286 58.3963C92.7243 58.2707 92.4775 57.791 92.2803 57.3304C92.0831 56.8699 91.838 56.3902 91.7356 56.2646C91.5631 56.053 91.3288 55.5997 91.106 55.0465C91.0554 54.9209 90.9507 54.7153 90.8732 54.5897C90.606 54.1564 89.4753 51.77 89.0336 50.707C88.7899 50.1208 88.4626 49.4593 88.306 49.237C88.1495 49.0147 88.0215 48.784 88.0215 48.7243C88.0215 48.6646 87.6319 47.8661 87.1558 46.9498C86.6796 46.0335 86.2901 45.2103 86.2901 45.1205C86.2901 45.0306 85.9704 44.3495 85.5797 43.6068C85.189 42.8641 84.9436 42.2564 85.0344 42.2564C85.1252 42.2564 85.3418 42.5476 85.5157 42.9035C85.6896 43.2595 86.0761 43.996 86.3746 44.5404C86.673 45.0847 86.9178 45.6197 86.9185 45.7293C86.9191 45.8389 87.1273 46.1815 87.381 46.4907C87.6347 46.7998 88.0315 47.5323 88.2629 48.1185C88.8579 49.6266 89.1403 50.1882 89.5512 50.6806C89.7487 50.9174 89.9103 51.1934 89.9103 51.2941C89.9103 51.5348 90.7405 53.4342 90.9613 53.6985C91.2196 54.0079 92.2712 56.1592 92.2712 56.3783C92.2712 56.4832 92.3335 56.5691 92.4095 56.5691C92.4856 56.5691 92.6344 56.7918 92.7402 57.064C93.0306 57.811 93.1567 58.1033 93.5163 58.8631C93.6972 59.2454 93.8452 59.6094 93.8452 59.6719C93.8452 59.7344 94.0126 60.141 94.2171 60.5755C94.4217 61.0099 94.6789 61.5899 94.7888 61.8642C95.0228 62.4485 95.7546 63.0054 96.1132 62.8723C96.4381 62.7517 96.4289 62.5912 96.0585 61.9191C95.3 60.5425 94.9015 59.5043 95.0452 59.2793C95.1863 59.0585 95.5623 59.566 95.8951 60.4264C96.0738 60.8884 96.394 61.5144 96.6066 61.8175C96.8192 62.1206 96.9932 62.4394 96.9932 62.5258C96.9932 62.616 97.2729 62.6634 97.6504 62.637C98.3149 62.5906 98.6827 62.8724 98.1942 63.0538C98.0001 63.1258 97.9886 63.1995 98.1358 63.4276C98.3847 63.8131 98.2274 63.9189 97.6962 63.7235C97.4529 63.634 97.142 63.6069 97.0054 63.6632C96.6021 63.8294 95.8407 63.8906 95.7445 63.7645C95.5619 63.5254 94.4841 63.2606 94.0862 63.3572C93.5839 63.4792 93.6444 63.7846 94.1831 63.8471C94.5207 63.8863 94.5659 63.9554 94.5073 64.342C94.4417 64.7741 94.1196 64.9453 93.9301 64.6487C93.88 64.5703 93.7165 64.5069 93.5667 64.5078C93.4169 64.5088 93.0099 64.4391 92.6623 64.3531C91.3238 64.022 88.4062 64.132 88.1094 64.5249C87.9987 64.6714 87.7607 64.7913 87.5806 64.7913C87.4004 64.7913 87.2087 64.8608 87.1545 64.9456C87.089 65.048 87.8893 65.0864 89.5321 65.0598C92.6084 65.01 93.2822 65.3338 90.3529 65.4543C87.9941 65.5513 88.216 65.5346 85.9753 65.7835C84.8932 65.9038 83.5828 66.114 83.0634 66.2507C81.4489 66.6757 80.4181 66.7652 80.2162 66.4981C80.014 66.2306 78.2627 66.0315 78.2627 66.2761C78.2627 66.3597 78.0845 66.4281 77.8667 66.4281C77.6489 66.4281 77.2062 66.6001 76.883 66.8103C76.4805 67.0719 75.9844 67.2213 75.3095 67.284C74.7674 67.3343 74.0446 67.5133 73.7033 67.6817C73.362 67.8502 72.5738 68.0578 71.9516 68.1432C70.545 68.3362 70.1054 68.4368 69.6042 68.6804C69.3869 68.786 68.6078 68.9055 67.8728 68.946C67.1229 68.9872 65.8802 69.1994 65.0412 69.4294C63.2737 69.914 61.9198 70.163 61.6323 70.0562C61.5186 70.014 61.0173 70.1055 60.5182 70.2594C59.4185 70.5986 58.7473 70.6843 55.5972 70.8875C52.9578 71.0578 51.4517 71.2845 51.584 71.4916C51.6298 71.5634 51.5954 71.6651 51.5074 71.7177C50.7334 72.1805 51.4672 72.3788 53.2362 72.1849V72.1849ZM96.1265 69.8144C96.0293 69.6623 96.3734 69.1375 96.7387 68.8809C96.8152 68.8272 96.8696 68.4332 96.8596 68.0054C96.8417 67.2363 97.0206 66.9778 97.2135 67.494C97.2682 67.6405 97.4141 67.9284 97.5376 68.1336C97.8327 68.6242 96.432 70.2926 96.1265 69.8144V69.8144ZM99.581 68.8292C99.2304 68.5704 99.4212 68.359 100.141 68.2084C100.358 68.1631 100.802 68.0493 101.13 67.9554C101.557 67.833 101.773 67.8314 101.895 67.9497C102.111 68.1587 101.936 68.444 101.588 68.4508C101.441 68.4536 101.038 68.5883 100.692 68.7502C99.9251 69.1086 99.9565 69.1063 99.581 68.8292V68.8292ZM100.141 63.1311C100.141 62.9288 101.535 62.4481 103.21 62.0726C104.218 61.8469 107.132 61.7721 107.186 61.9705C107.209 62.0557 106.674 62.1349 105.927 62.1566C104.277 62.2046 102.525 62.4748 102.075 62.7506C101.883 62.8681 101.551 62.9642 101.337 62.9642C101.124 62.9642 100.767 63.031 100.545 63.1127C100.323 63.1943 100.141 63.2026 100.141 63.1311V63.1311ZM91.7971 59.9902C91.6996 59.7419 91.5268 59.4359 91.4132 59.3101C91.2996 59.1844 91.1535 58.9102 91.0886 58.7008C90.9559 58.2731 89.5257 55.4127 88.8046 54.1329C88.5451 53.6723 88.2942 53.1782 88.2471 53.0347C88.2 52.8913 87.8855 52.2884 87.5482 51.6948C87.2109 51.1013 86.7588 50.1908 86.5435 49.6716C85.8775 48.0656 85.4727 47.2145 85.2618 46.9766C85.1505 46.851 84.9408 46.3713 84.7959 45.9107C84.651 45.4501 84.314 44.6354 84.0471 44.1001C83.7802 43.5649 83.5618 43.0338 83.5618 42.9201C83.5618 42.8063 83.5028 42.7132 83.4307 42.7132C83.3585 42.7132 83.2995 42.644 83.2995 42.5594C83.2995 42.4748 83.0693 42.0795 82.7879 41.681C81.7627 40.2287 81.4743 39.5091 81.9222 39.5209C82.1182 39.526 84.9383 44.8816 85.1266 45.6062C85.181 45.8156 85.3151 46.0896 85.4247 46.2153C85.7403 46.5772 86.305 47.7291 86.2669 47.9331C86.2328 48.1149 86.6024 48.9612 86.913 49.4128C86.9994 49.5384 87.1423 49.9217 87.2305 50.2646C87.3187 50.6075 87.6023 51.1899 87.8607 51.5589C88.1191 51.9278 88.3318 52.2911 88.3334 52.3661C88.335 52.4412 88.5862 52.8669 88.8917 53.3121C89.1971 53.7573 89.66 54.6209 89.9201 55.2311C90.5865 56.7941 91.8125 59.1576 91.9569 59.1576C92.1295 59.1576 92.2393 60.0271 92.0951 60.2528C92.0136 60.3803 91.917 60.2951 91.7971 59.9902V59.9902ZM83.892 40.5435C83.7578 40.2713 83.2508 39.2586 82.7654 38.2931C81.8139 36.4004 81.5487 35.355 82.3803 36.775C82.65 37.2356 83.1482 38.0506 83.4873 38.5862C84.0272 39.439 84.5495 40.5812 84.5564 40.9241C84.5627 41.2389 84.1059 40.9772 83.892 40.5435V40.5435ZM80.5741 37.7595C80.4283 37.4636 80.3089 37.0809 80.3089 36.9091C80.3089 36.7373 80.061 36.1099 79.758 35.5149C79.455 34.92 79.2071 34.3518 79.2071 34.2523C79.2071 34.1529 79.1009 33.9862 78.971 33.882C78.8412 33.7777 78.7349 33.573 78.7349 33.4271C78.7349 33.2811 78.6033 32.9983 78.4425 32.7986C77.9743 32.2172 76.851 30.1215 76.954 30.0217C77.0058 29.9717 76.9008 29.8091 76.7208 29.6605C76.5408 29.5118 76.1659 28.8421 75.8879 28.1721C75.6098 27.5022 75.2467 26.8367 75.081 26.6933C74.9153 26.5499 74.7572 26.2758 74.7296 26.0843C74.7021 25.8927 74.5873 25.4961 74.4745 25.203C74.3618 24.9099 74.2886 24.6435 74.3121 24.611C74.3355 24.5785 74.2932 24.5099 74.2181 24.4587C73.8803 24.2282 73.0685 22.98 73.0685 22.6911C73.0685 22.515 73.0057 22.3058 72.9288 22.2263C72.6934 21.9825 72.5609 21.3964 72.7412 21.3964C72.9777 21.3964 73.5918 22.3902 73.9832 23.4063C74.4102 24.5152 76.1739 27.9242 76.4674 28.2082C76.7781 28.5087 76.9429 28.8506 77.0564 29.4297C77.1099 29.7026 77.3014 30.1193 77.4821 30.3557C77.6628 30.5921 77.8256 30.8842 77.8439 31.0048C77.8622 31.1254 78.0701 31.4688 78.306 31.768C78.5419 32.0672 78.7349 32.3979 78.7349 32.5029C78.7349 32.6078 79.0685 33.3551 79.4762 34.1634C80.166 35.531 80.8359 37.151 81.0439 37.955C81.1819 38.4881 80.8692 38.358 80.5741 37.7595V37.7595ZM81.0563 34.9752C80.8184 34.4877 80.6237 33.9845 80.6237 33.8568C80.6237 33.7291 80.4847 33.503 80.3148 33.3542C80.1449 33.2055 79.9248 32.8352 79.8256 32.5313C79.7265 32.2274 79.3795 31.4991 79.0547 30.9129C78.7298 30.3266 78.3372 29.4728 78.1823 29.0155C78.0273 28.5581 77.694 27.8451 77.4417 27.4311C76.6469 26.1271 75.9017 24.6131 75.9017 24.3022C75.9017 24.1376 75.8309 23.9605 75.7443 23.9088C75.5602 23.7987 75.5328 23.5281 75.7058 23.5281C75.8788 23.5281 76.8461 25.3062 76.8461 25.6241C76.8461 25.7723 77.0232 26.1457 77.2396 26.4538C77.456 26.7619 77.6331 27.0861 77.6331 27.1743C77.6331 27.2625 77.7051 27.3347 77.7931 27.3347C77.9587 27.3347 78.0879 27.5915 78.8273 29.3902C79.0682 29.9764 79.4233 30.6616 79.6165 30.9129C79.8096 31.1641 80.0169 31.6437 80.0771 31.9787C80.1373 32.3137 80.2672 32.6571 80.3658 32.742C80.7596 33.0808 81.614 34.6789 81.8097 35.4427C82.0076 36.2148 81.511 35.9066 81.0563 34.9752V34.9752ZM71.1186 18.9977C70.4397 17.3473 69.8715 16.1295 69.6804 15.915C69.5684 15.7894 69.3583 15.3097 69.2134 14.8491C69.0685 14.3885 68.7315 13.5737 68.4646 13.0385C68.1977 12.5032 67.9793 11.9722 67.9793 11.8585C67.9793 11.7447 67.9203 11.6516 67.8481 11.6516C67.776 11.6516 67.717 11.5824 67.717 11.4978C67.717 11.4132 67.4868 11.0179 67.2054 10.6194C66.1802 9.16711 65.8918 8.44749 66.3397 8.45926C66.5357 8.46441 69.3557 13.82 69.544 14.5446C69.5985 14.754 69.7326 15.028 69.8421 15.1537C70.1537 15.511 70.7224 16.6658 70.6881 16.8714C70.6486 17.1076 70.9822 17.9 71.2469 18.1986C71.3583 18.3244 71.5229 18.7185 71.6127 19.0744C71.8425 19.9859 71.5034 19.9333 71.1186 18.9977V18.9977ZM79.8367 72.0598C80.3128 71.9338 81.3753 71.7164 82.1977 71.5768C83.0201 71.4372 84.0294 71.2511 84.4406 71.1634C84.8517 71.0756 85.4892 70.985 85.8572 70.962C86.2251 70.9391 86.8095 70.8448 87.1558 70.7525C87.502 70.6601 88.0224 70.5829 88.312 70.5809C88.9522 70.5765 90.5399 70.1462 90.5399 69.9771C90.5399 69.7152 88.7284 69.6508 88.0334 69.888C87.6588 70.0159 87.0298 70.1205 86.6356 70.1205C86.2414 70.1205 85.7014 70.1845 85.4356 70.2627C84.4908 70.5407 83.0489 70.9097 82.0444 71.1307C81.484 71.2539 80.9882 71.4075 80.9426 71.472C80.8971 71.5364 80.5063 71.6053 80.0742 71.6251C79.219 71.6642 77.8435 72.0461 77.6893 72.2874C77.5646 72.4826 78.6903 72.3633 79.8367 72.0598V72.0598ZM69.2122 71.7887C69.7317 71.7092 70.6525 71.6571 71.2584 71.6729C72.3562 71.7016 73.5012 71.4875 73.6818 71.2198C73.7341 71.1424 74.1598 71.0308 74.6278 70.972C75.0958 70.9132 75.6766 70.766 75.9185 70.645C76.1604 70.524 76.5212 70.425 76.7202 70.4249C77.2853 70.4248 78.6562 69.8696 78.6562 69.6409C78.6562 69.5279 78.5735 69.4506 78.4724 69.4692C78.0339 69.5501 76.7225 69.7019 76.2165 69.7303C75.392 69.7766 73.4563 70.1059 72.1241 70.4263C71.4749 70.5825 70.4832 70.7954 69.9205 70.8994C69.3578 71.0034 68.5236 71.2475 68.0666 71.4419C67.6097 71.6363 67.1138 71.7965 66.9648 71.7977C66.8158 71.799 66.5876 71.8696 66.4578 71.9545C66.1972 72.1249 67.5481 72.0436 69.2122 71.7887V71.7887ZM99.8748 71.8617C100.013 71.8105 100.074 71.6567 100.027 71.481C99.9333 71.1353 99.5116 71.0811 99.5116 71.4148C99.5116 71.5404 99.4408 71.6431 99.3542 71.6431C99.2676 71.6431 99.1968 71.7117 99.1968 71.7954C99.1968 71.9635 99.5164 71.9948 99.8748 71.8617V71.8617ZM103.762 71.7932C104.065 71.7082 104.852 71.603 105.511 71.5593C108.035 71.3922 108.361 71.3058 108.086 70.8757C107.996 70.7348 107.345 70.719 105.353 70.8096C103.915 70.875 102.222 70.9155 101.591 70.8997C100.271 70.8666 100.074 70.9337 100.329 71.3289C100.483 71.5674 100.651 71.5972 101.447 71.5273C102.214 71.4601 102.411 71.4909 102.53 71.6964C102.698 71.9866 102.992 72.0097 103.762 71.7932ZM132.159 71.8553C132.749 71.6363 132.314 71.4909 131.07 71.4909C129.649 71.4909 129.223 71.7399 130.48 71.8357C130.891 71.8671 131.381 71.9051 131.569 71.9202C131.757 71.9353 132.022 71.9061 132.159 71.8553ZM116.27 71.6508C116.321 71.5713 116.095 71.467 115.767 71.4189C115.44 71.3709 114.819 71.2594 114.386 71.1712C112.863 70.8608 108.483 70.7989 108.483 71.0877C108.483 71.2257 108.536 71.3429 108.601 71.3481C108.666 71.3533 109.711 71.3884 110.923 71.426C112.135 71.4636 113.622 71.5524 114.228 71.6233C115.814 71.8087 116.166 71.8135 116.27 71.6508V71.6508ZM53.0001 70.7448C53.5195 70.661 54.9715 70.5175 56.2268 70.4257C60.7154 70.0975 62.6846 69.3833 58.5336 69.589C55.8917 69.72 49.5913 69.725 49.1728 69.5965C48.7803 69.476 48.7038 69.0547 49.0744 69.0547C49.2094 69.0547 49.276 68.9862 49.2225 68.9024C49.169 68.8187 48.9565 68.7501 48.7503 68.7501C48.5441 68.7501 48.3275 68.6752 48.269 68.5835C48.2104 68.4919 47.9784 68.451 47.7533 68.4926C46.745 68.6791 45.3622 67.5797 45.258 66.5088C45.2079 65.9936 45.0012 65.4182 44.3404 63.9539C44.227 63.7026 44.0542 63.2473 43.9564 62.942C43.8587 62.6366 43.4993 62.001 43.1578 61.5294C42.8163 61.0579 42.4903 60.4855 42.4334 60.2574C42.3764 60.0294 42.2094 59.6715 42.0622 59.4621C41.6851 58.9257 40.8879 57.4061 40.4645 56.4169C40.2674 55.9563 39.7992 55.134 39.424 54.5897C39.0488 54.0454 38.6978 53.4287 38.644 53.2193C38.5902 53.01 38.1428 52.1192 37.6498 51.2399C37.1567 50.3606 36.6298 49.3671 36.4788 49.0321C36.3277 48.6971 35.8574 47.7285 35.4336 46.8796C35.0098 46.0307 34.6631 45.2945 34.6631 45.2437C34.6631 45.1928 34.3349 44.4828 33.9339 43.6658C33.5328 42.8488 32.9186 41.5979 32.569 40.8861C32.2193 40.1742 31.4616 38.8039 30.8851 37.8408C30.3086 36.8777 29.5737 35.5904 29.2521 34.98C28.9304 34.3697 28.3872 33.4512 28.045 32.9389C27.7028 32.4267 27.4227 31.931 27.4227 31.8374C27.4227 31.7438 27.1748 31.3031 26.8718 30.858C26.5688 30.413 26.3209 29.9949 26.3209 29.9291C26.3209 29.8632 25.9314 29.256 25.4552 28.5796C24.9791 27.9033 24.5896 27.2732 24.5896 27.1795C24.5896 27.0858 24.1806 26.4486 23.6808 25.7635C22.3534 23.9439 21.872 23.1713 21.0071 21.4726C20.5807 20.6351 20.0238 19.5731 19.7694 19.1125C19.5151 18.6519 19.1834 18.001 19.0324 17.666C18.8815 17.331 18.6214 16.8171 18.4546 16.524C18.2878 16.2309 18.107 15.7513 18.0528 15.4582C17.9987 15.1651 17.8583 14.7197 17.741 14.4685C17.6236 14.2172 17.4475 13.6691 17.3497 13.2504C17.0603 12.0114 16.8496 11.3008 16.6205 10.7912C16.5019 10.5273 16.4048 10.2021 16.4048 10.0685C16.4048 9.93495 16.253 9.40136 16.0675 8.88276C15.8819 8.36416 15.7071 7.69583 15.6789 7.39759C15.4871 5.36908 15.2884 5.01901 14.7663 5.78983C14.5394 6.12493 14.5351 6.22123 14.7309 6.58921C15.1142 7.3097 15.2879 8.10322 15.1018 8.28329C14.9831 8.39808 14.8845 8.35096 14.7644 8.12215C14.5106 7.6386 14.0961 7.42902 13.8549 7.66232C13.6997 7.81248 13.6982 7.90961 13.8478 8.11569C13.9525 8.25994 14.1829 8.66916 14.3598 9.02508C14.7491 9.80881 15.1887 9.91877 15.0391 9.19501C14.9626 8.82514 14.99 8.73444 15.1611 8.7917C15.2824 8.83233 15.3701 9.02993 15.356 9.23081C15.3419 9.4317 15.4589 9.97291 15.616 10.4335C16.1058 11.8699 16.4443 13.4659 16.3182 13.745C16.0995 14.2292 16.6716 15.3059 17.1476 15.3059C17.2639 15.3059 17.3999 15.4258 17.4499 15.5724C17.6569 16.1799 18.1372 17.1157 18.2886 17.2062C18.3779 17.2596 18.451 17.4279 18.451 17.5802C18.451 17.7325 18.5589 17.9438 18.6909 18.0497C18.8228 18.1556 18.9 18.2721 18.8623 18.3085C18.8247 18.345 19.1063 18.9622 19.4881 19.6801C19.87 20.398 20.1824 21.1122 20.1824 21.2671C20.1824 21.422 20.2532 21.5487 20.3398 21.5487C20.4263 21.5487 20.4972 21.6424 20.4972 21.7569C20.4972 21.8715 20.8254 22.4367 21.2265 23.0131C21.6276 23.5895 22.1914 24.552 22.4793 25.1521C22.7671 25.7522 23.0753 26.2866 23.164 26.3396C23.2527 26.3927 23.5671 26.9021 23.8626 27.4716C24.5253 28.749 25.6103 30.7002 26.0165 31.3449C26.1834 31.6097 26.6095 32.3917 26.9635 33.0826C27.3175 33.7735 27.6612 34.3388 27.7272 34.3388C27.7932 34.3388 27.9629 34.5957 28.1044 34.9098C28.2459 35.2238 28.6338 35.9604 28.9664 36.5466C29.299 37.1328 29.7074 37.9893 29.874 38.4499C30.0406 38.9105 30.2543 39.3558 30.3489 39.4396C30.4436 39.5233 30.6775 39.9552 30.8687 40.3993C31.0599 40.8435 31.5206 41.7685 31.8925 42.4549C32.2644 43.1413 32.6105 43.9085 32.6616 44.1597C32.7127 44.4109 33.1326 45.1707 33.5947 45.848C34.0568 46.5254 34.5621 47.3818 34.7175 47.7513C34.8729 48.1208 35.2364 48.9027 35.5253 49.4889C35.8142 50.0751 36.1009 50.726 36.1624 50.9354C36.224 51.1448 36.3627 51.4188 36.4707 51.5445C36.5787 51.6701 36.714 51.964 36.7714 52.1977C36.8694 52.5962 37.4912 53.9839 38.355 55.7317C38.562 56.1504 38.8506 56.8013 38.9965 57.1782C39.1423 57.555 39.3731 58.0663 39.5094 58.3144C39.8756 58.9812 40.5397 60.3102 41.1099 61.5177C41.3867 62.1039 41.7509 62.8233 41.9193 63.1164C43.9161 66.593 44.7806 68.9204 44.325 69.593C44.1817 69.8046 44.0917 69.9927 44.1251 70.0111C44.9156 70.4451 45.343 70.5537 46.6254 70.646C47.4479 70.7052 48.4041 70.803 48.7503 70.8632C49.5552 71.0034 51.7806 70.9413 53.0001 70.7448H53.0001ZM140.475 70.7969C141.226 70.668 141.216 70.5816 140.37 69.9105C139.512 69.2308 139.567 69.2269 139.162 69.9958C138.8 70.6816 139.026 71.1396 139.64 70.9668C139.775 70.929 140.15 70.8525 140.475 70.7969V70.7969ZM82.9037 70.3264C83.8871 69.7947 83.5296 69.494 82.3823 69.8878C81.9777 70.0267 81.4343 70.1906 81.1746 70.2521C80.7286 70.3578 80.7199 70.3739 81.0172 70.5422C81.5193 70.8263 82.1025 70.7596 82.9037 70.3264V70.3264ZM81.0798 69.1388C81.6989 68.8292 83.5186 68.5269 83.8715 68.6751C84.033 68.743 84.2258 68.7852 84.2998 68.769C84.3738 68.7528 84.535 68.8202 84.6579 68.9189C84.9184 69.128 87.0173 68.7143 87.5026 68.3582C87.9179 68.0535 86.6825 68.0641 86.0753 68.3704C85.5788 68.6209 84.5587 68.6794 84.5587 68.4574C84.5587 68.2515 85.4291 68.0267 86.6836 67.9088C88.3202 67.7549 88.6917 67.4987 87.9024 67.068C87.4357 66.8134 86.3316 67.0014 85.0206 67.5589C84.712 67.6901 83.7912 67.9182 82.9744 68.0657C79.6576 68.6647 79.4616 68.7255 79.6137 69.109C79.7383 69.423 80.4816 69.4381 81.0798 69.1388V69.1388ZM91.5236 69.1089C91.8059 69.0578 91.9564 68.9349 91.9564 68.7558C91.9564 68.4142 91.4417 68.271 90.8833 68.4573C90.6511 68.5347 90.2487 68.6223 89.989 68.6518C89.7292 68.6813 89.2689 68.7632 88.9659 68.8338L88.415 68.9621L89.0446 69.1507C89.6226 69.3238 90.4111 69.3105 91.5236 69.1089V69.1089ZM53.3149 69.0547C53.3684 68.9709 53.5851 68.9024 53.7964 68.9024C54.0077 68.9024 54.1806 68.8438 54.1806 68.7721C54.1806 68.5148 51.5118 68.6781 51.2279 68.9528C50.9825 69.1901 51.0396 69.2069 52.0914 69.2069C52.7108 69.2069 53.2614 69.1384 53.3149 69.0547V69.0547ZM62.2767 68.5923C62.4522 68.4226 61.2741 68.3903 60.4836 68.5432C60.1172 68.6141 60.0364 68.6786 60.1884 68.7788C60.4402 68.9446 62.0623 68.7997 62.2767 68.5923V68.5923ZM81.4592 67.9729C82.6679 67.7933 83.3672 67.5451 82.688 67.5367C82.1104 67.5296 80.2486 67.87 80.0807 68.0134C79.8828 68.1824 80.0903 68.1763 81.4592 67.9729ZM92.0351 67.5321C92.0886 67.4483 92.0526 67.3798 91.9551 67.3798C91.8495 67.3798 91.8182 67.2568 91.8777 67.0753C91.9972 66.7113 89.5196 66.6005 89.1547 66.9535C88.704 67.3894 88.9403 67.5461 89.9496 67.4803C90.4907 67.445 91.075 67.4717 91.2481 67.5396C91.6877 67.7118 91.9217 67.7096 92.0351 67.5321V67.5321ZM119.685 64.7114C119.688 64.4912 118.718 64.2553 115.661 63.7329C112.904 63.2618 106.914 63.1628 105.099 63.5583C104.753 63.6338 104.13 63.7625 103.715 63.8444C102.856 64.0138 102.738 64.0871 102.903 64.3463C102.992 64.4848 103.475 64.5008 104.847 64.4107C106.982 64.2705 107.125 64.2722 110.53 64.4763C111.958 64.562 114.189 64.6377 115.488 64.6447C116.786 64.6517 118.203 64.7122 118.636 64.7791C119.552 64.9207 119.681 64.9123 119.685 64.7114V64.7114ZM138.861 64.5422C138.861 64.321 138.534 64.2807 137.956 64.4305C137.394 64.5762 137.544 64.7498 138.232 64.7498C138.659 64.7498 138.861 64.6829 138.861 64.5422ZM125.743 63.0337C125.88 62.6895 125.845 62.6795 124.137 62.5664L122.571 62.4628L122.882 62.8017C123.104 63.0437 123.309 63.1183 123.597 63.0624C123.82 63.0194 124.105 63.0471 124.231 63.1241C124.614 63.3585 125.638 63.2973 125.743 63.0337V63.0337ZM94.0026 62.8268C94.0026 62.5665 93.034 62.3373 92.7836 62.5383C92.5876 62.6957 92.5964 62.737 92.8462 62.8321C93.2648 62.9914 94.0026 62.9881 94.0026 62.8268V62.8268ZM122.177 62.6045C122.177 62.3417 120.774 62.1782 119.895 62.3385C119.282 62.4503 119.296 62.4574 120.446 62.6122C122.111 62.8363 122.177 62.836 122.177 62.6045ZM128.667 62.0902C129.517 61.9778 129.238 61.7564 128.353 61.8411C127.016 61.9689 126.337 62.1822 127.293 62.1743C127.725 62.1708 128.344 62.1329 128.667 62.0902ZM31.9022 59.8808C31.7264 59.3145 30.7385 57.7264 30.6284 57.833C30.4512 58.0044 31.5932 60.2234 31.8586 60.2234C31.9411 60.2234 31.9607 60.0693 31.9022 59.8808V59.8808ZM37.7505 58.7389C37.7055 58.5923 37.6222 58.284 37.5654 58.0537C37.4597 57.625 37.1815 57.4706 37.1815 57.8406C37.1815 58.2074 37.5228 59.0053 37.6797 59.0053C37.7636 59.0053 37.7955 58.8854 37.7505 58.7389ZM38.3863 57.9776C38.3448 57.831 38.2644 57.437 38.2078 57.1021C38.1019 56.4763 37.8295 55.8818 35.8202 51.8932C34.7224 49.7139 34.4386 49.2747 34.2479 49.4591C34.2042 49.5014 34.5631 50.4901 35.0454 51.6563C35.5277 52.8225 35.9223 53.891 35.9223 54.0309C35.9223 54.1708 35.9931 54.2852 36.0797 54.2852C36.1663 54.2852 36.2371 54.3654 36.2371 54.4635C36.2371 54.5616 36.3291 54.75 36.4416 54.8823C36.554 55.0145 36.8158 55.4995 37.0234 55.9601C37.231 56.4207 37.4822 56.866 37.5817 56.9498C37.6812 57.0335 37.8586 57.359 37.9759 57.673C38.1865 58.2369 38.5327 58.4938 38.3863 57.9776V57.9776ZM33.2161 48.8418C32.9012 48.0175 32.3957 47.2915 32.2414 47.4418C32.153 47.528 32.7645 49.2737 32.9719 49.527C33.4119 50.0645 33.5429 49.6971 33.2161 48.8418ZM33.6568 46.888C33.6043 46.7555 33.5613 46.5895 33.5613 46.519C33.5613 46.4485 33.3703 46.1713 33.1368 45.9028C32.7503 45.4585 32.2613 44.3938 32.0368 43.508C31.9884 43.317 31.8158 43.0919 31.6533 43.0078C31.2307 42.789 31.2465 43.4822 31.6725 43.8552C31.8457 44.0068 31.9877 44.2058 31.9882 44.2975C31.99 44.6447 32.3217 45.6039 32.5048 45.7914C32.6097 45.8989 32.8184 46.2438 32.9685 46.5579C33.2312 47.1074 33.8644 47.4111 33.6568 46.888V46.888ZM29.9037 41.9852C29.7944 41.8583 29.5529 41.4072 29.3669 40.9828C29.1809 40.5584 28.9508 40.1861 28.8554 40.1553C28.6389 40.0855 28.6243 40.6814 28.8393 40.8099C28.9259 40.8617 28.9967 41.002 28.9967 41.1217C28.9967 41.2414 29.1207 41.4794 29.2722 41.6506C29.4237 41.8217 29.5565 42.0281 29.5673 42.1091C29.5781 42.1901 29.5958 42.3333 29.6067 42.4273C29.6204 42.5465 29.6985 42.5403 29.8644 42.4071C30.0581 42.2516 30.0654 42.1731 29.9037 41.9852V41.9852ZM30.6195 41.0003C30.4992 40.4092 29.8011 39.3351 29.6111 39.4487C29.5373 39.4928 29.6876 39.8103 29.9451 40.1542C30.2026 40.4981 30.4133 40.8948 30.4133 41.0358C30.4133 41.2657 30.5424 41.4951 30.6717 41.4951C30.6984 41.4951 30.6749 41.2724 30.6195 41.0003ZM27.9947 38.5898C27.9413 38.3317 27.7554 37.9457 27.5815 37.7318C27.4076 37.5179 27.2653 37.1858 27.2653 36.9937C27.2653 36.6424 26.8964 36.1659 26.6245 36.1659C26.5441 36.1659 26.4783 36.0052 26.4783 35.8089C26.4783 35.6125 26.3367 35.3278 26.1635 35.1762C25.9904 35.0246 25.8487 34.8085 25.8487 34.6958C25.8487 34.5832 25.7856 34.491 25.7084 34.491C25.6312 34.491 25.5222 34.3142 25.4661 34.0981C25.3425 33.6215 24.6022 32.5116 24.408 32.5116C24.3312 32.5116 24.4114 32.783 24.5864 33.1146C24.7613 33.4462 24.9044 33.7918 24.9044 33.8826C24.9044 33.9733 25.0814 34.2323 25.2978 34.4581C25.5143 34.6838 25.6913 34.9656 25.6913 35.0842C25.6913 35.2027 25.8723 35.5293 26.0936 35.8099C26.3148 36.0904 26.4611 36.3743 26.4187 36.4407C26.3762 36.5071 26.5128 36.8321 26.7221 37.163C26.9315 37.4939 27.2489 38.0559 27.4275 38.4118C27.8112 39.1762 28.1371 39.2785 27.9947 38.5898H27.9947ZM24.1174 29.2139C24.1174 28.8943 23.6783 28.0218 23.0584 27.1098C22.666 26.5324 22.5434 26.4305 22.5434 26.682C22.5434 26.8636 22.6142 27.0545 22.7008 27.1063C22.7873 27.158 22.8582 27.3173 22.8582 27.4601C22.8582 27.869 23.8029 29.6364 23.9685 29.5374C24.0504 29.4884 24.1174 29.3429 24.1174 29.2139V29.2139ZM21.7243 28.824C21.1016 27.8924 21.2545 27.2294 21.9246 27.9554L22.357 28.4239L22.2897 27.7271C22.2212 27.0179 21.5685 25.6829 21.1822 25.4619C21.0652 25.3949 20.9694 25.1806 20.9694 24.9857C20.9694 24.7907 20.8631 24.5459 20.7333 24.4417C20.6034 24.3374 20.4972 24.1212 20.4972 23.9612C20.4972 23.8012 20.3191 23.3304 20.1016 22.915C19.884 22.4997 19.7019 22.108 19.6968 22.0446C19.6919 21.9812 19.6002 21.8266 19.4932 21.701C19.3862 21.5753 19.0619 21.0101 18.7725 20.4448C18.3187 19.5581 17.7653 18.9639 18.0413 19.6596C18.0942 19.7929 18.183 20.0842 18.2385 20.3067C18.294 20.5292 18.4708 20.8931 18.6313 21.1154C18.7918 21.3377 18.9232 21.5992 18.9232 21.6964C18.9232 21.8708 20.2556 24.5265 20.4915 24.8223C20.5583 24.9061 20.7551 25.3515 20.9288 25.812C21.1025 26.2726 21.2965 26.7694 21.3599 26.916C21.5472 27.3487 21.1789 27.2241 20.8169 26.7324C20.6347 26.4848 20.409 26.0566 20.3154 25.7807C20.0677 25.0511 19.3974 23.664 19.0796 23.2236C18.9285 23.0142 18.7561 22.625 18.6965 22.3586C18.6369 22.0922 18.4883 21.7941 18.3663 21.6962C18.2443 21.5982 18.0992 21.2844 18.0438 20.9988C17.9884 20.7132 17.8849 20.4447 17.8139 20.4022C17.7428 20.3597 17.5754 19.9614 17.4419 19.5171C17.3083 19.0728 17.0558 18.5838 16.8806 18.4305C16.7055 18.2772 16.5588 18.0424 16.5546 17.9088C16.5468 17.6563 16.3123 17.1935 15.5784 15.9821C15.3404 15.5891 15.1456 15.1385 15.1456 14.9807C15.1456 14.8229 14.8977 14.3526 14.5947 13.9356C14.2917 13.5185 14.0438 13.1081 14.0438 13.0235C14.0438 12.9389 13.9198 12.744 13.7684 12.5905C13.6169 12.4369 13.3843 12.1114 13.2515 11.8672C12.9831 11.3734 12.4049 11.1988 12.2587 11.5674C12.1993 11.717 12.2524 11.8039 12.4032 11.8039C12.769 11.8039 13.4142 12.5083 13.4142 12.9076C13.4142 13.1036 13.7328 13.8775 14.1221 14.6275C14.5115 15.3775 14.8302 16.0481 14.8304 16.1178C14.831 16.3435 15.81 18.4104 16.1973 19.004C16.4042 19.3211 16.5406 19.6322 16.5003 19.6953C16.4599 19.7584 16.5216 20.0128 16.6372 20.2606C16.7528 20.5085 17.0311 21.101 17.2557 21.5773C17.4803 22.0537 17.664 22.5138 17.664 22.5999C17.664 22.8705 18.1927 23.8905 18.5656 24.3392C18.7622 24.5759 18.9232 24.8671 18.9232 24.9863C18.9232 25.1055 19.0036 25.203 19.1019 25.203C19.481 25.203 20.1868 26.1771 20.2603 26.8018C20.3125 27.2454 21.3189 28.9495 21.6716 29.1916C21.9386 29.3748 21.9657 29.1853 21.7243 28.824V28.824ZM16.09 27.4035C16.09 27.3575 15.9483 27.0492 15.7752 26.7183C15.6021 26.3873 15.3193 25.8469 15.1468 25.5172C14.7908 24.8369 14.4349 24.5205 14.6552 25.0801C15.2194 26.5132 16.09 27.923 16.09 27.4035ZM14.2066 23.7184C14.0186 23.113 13.884 22.7679 13.5682 22.0816C13.2418 21.3723 12.903 20.6094 12.6046 19.9119C12.4882 19.6397 12.3394 19.417 12.274 19.417C12.2085 19.417 12.155 19.2207 12.155 18.9808C12.155 18.7408 12.0133 18.3703 11.8402 18.1574C11.6671 17.9444 11.5254 17.7009 11.5254 17.6162C11.5254 17.475 11.1949 16.7763 10.8647 16.2195C10.7902 16.0939 10.6877 15.8712 10.6368 15.7246C10.5859 15.5781 10.4817 15.4582 10.4053 15.4582C10.3288 15.4582 10.2662 15.3482 10.2662 15.2137C10.2662 15.0792 10.0923 14.7693 9.87972 14.5249L9.49323 14.0805L9.5563 14.5029C9.66466 15.2286 9.91651 15.8967 10.255 16.3566C10.4343 16.6001 10.581 16.9047 10.581 17.0334C10.581 17.1621 10.6532 17.3105 10.7414 17.3633C10.9372 17.4803 12.7944 21.194 13.4414 22.7623C14.0348 24.2004 14.5601 24.8569 14.2066 23.7184V23.7184ZM10.8621 13.6099C10.9056 13.3931 10.4108 12.7174 10.2084 12.7174C10.0507 12.7174 10.0922 13.1246 10.2933 13.5517C10.4866 13.9621 10.7853 13.9927 10.8621 13.6099V13.6099ZM14.9882 12.9389C14.9882 12.8932 14.8111 12.534 14.5947 12.1407C14.3783 11.7474 14.2012 11.3052 14.2012 11.158C14.2012 10.8202 13.9524 10.8089 13.8207 11.1407C13.7661 11.2784 13.8267 11.5036 13.9553 11.6411C14.0839 11.7786 14.2991 12.1456 14.4334 12.4566C14.6374 12.9289 14.9882 13.2339 14.9882 12.9389V12.9389ZM13.7102 9.11571C13.2558 8.23763 13.03 8.14323 12.8144 8.74131C12.6269 9.26168 12.7309 9.82445 13.0147 9.82445C13.121 9.82445 13.3412 9.96684 13.504 10.1409L13.8 10.4573L13.9424 10.1485C14.0464 9.92307 13.9838 9.64445 13.7102 9.11571V9.11571Z" fill="black"/>
</svg>
