<svg width="33" height="33" viewBox="0 0 33 33" fill="none" xmlns="http://www.w3.org/2000/svg">
<path d="M27.3808 9.58997C27.3531 9.76786 27.3208 9.94962 27.2848 10.1365C26.0492 16.4529 21.8217 18.6315 16.4218 18.6315H13.6729C13.3549 18.6307 13.047 18.7437 12.8051 18.9501C12.5631 19.1565 12.4029 19.4426 12.3535 19.7568L10.9459 28.641L10.5476 31.1592C10.5333 31.2502 10.537 31.3431 10.5587 31.4326C10.5803 31.5221 10.6194 31.6064 10.6737 31.6808C10.7281 31.7551 10.7965 31.818 10.8752 31.8659C10.9538 31.9138 11.0412 31.9457 11.1322 31.9597C11.1684 31.9654 11.205 31.9682 11.2417 31.9681H16.1176C16.3965 31.9689 16.6665 31.8703 16.8791 31.6899C17.0918 31.5095 17.2331 31.2592 17.2778 30.9839L17.3255 30.737L18.2433 24.9363L18.3019 24.6179C18.3459 24.3421 18.487 24.0912 18.6997 23.9104C18.9125 23.7295 19.1829 23.6307 19.4621 23.6317H20.191C24.9155 23.6317 28.6131 21.7226 29.694 16.199C30.1452 13.8916 29.9119 11.9651 28.7169 10.6096C28.337 10.1915 27.8843 9.84602 27.3808 9.58997Z" fill="white"/>
<path d="M24.8474 3.29291C23.4501 1.7093 20.928 1.03125 17.7002 1.03125H8.33001C8.0113 1.0305 7.70279 1.14359 7.46007 1.35015C7.21734 1.55671 7.05637 1.84316 7.00615 2.15789L3.10351 26.779C3.0871 26.8832 3.09142 26.9896 3.11622 27.0921C3.14102 27.1946 3.18581 27.2912 3.24803 27.3763C3.31024 27.4615 3.38866 27.5335 3.47878 27.5883C3.5689 27.643 3.66894 27.6795 3.77318 27.6955C3.81455 27.702 3.85635 27.7052 3.89822 27.7052H9.68353L11.1363 18.5341L11.0912 18.8216C11.1406 18.5074 11.3007 18.2213 11.5427 18.0149C11.7847 17.8085 12.0925 17.6955 12.4105 17.6963H15.1595C20.5587 17.6963 24.7862 15.5139 26.0224 9.20133C26.0591 9.01442 26.0901 8.83266 26.1184 8.65477C26.4858 6.32028 26.1152 4.73151 24.8474 3.29291Z" fill="white"/>
</svg>
