<svg width="235" height="165" viewBox="0 0 235 165" fill="none" xmlns="http://www.w3.org/2000/svg">
<path d="M0 153.273C0 159.755 5.2405 165 11.6912 165H105.809C108.909 165 111.883 163.765 114.076 161.565C116.268 159.366 117.5 156.383 117.5 153.273C117.5 150.163 116.268 147.18 114.076 144.981C111.883 142.782 108.909 141.546 105.809 141.546H11.6912C8.59054 141.546 5.61682 142.782 3.42429 144.981C1.23175 147.18 0 150.163 0 153.273V153.273Z" fill="#2B2B2B"/>
<path d="M0 82.5C0 88.9822 5.2405 94.2268 11.6912 94.2268H223.309C226.409 94.2268 229.383 92.9913 231.576 90.7921C233.768 88.5929 235 85.6102 235 82.5C235 79.3899 233.768 76.4071 231.576 74.2079C229.383 72.0087 226.409 70.7732 223.309 70.7732H11.6912C8.59054 70.7732 5.61682 72.0087 3.42429 74.2079C1.23175 76.4071 0 79.3899 0 82.5V82.5Z" fill="#2B2B2B"/>
<path d="M14.2143 23.5714C10.4444 23.5714 6.82896 22.3297 4.16327 20.1195C1.49757 17.9092 0 14.9115 0 11.7857C0 8.65995 1.49757 5.66221 4.16327 3.45196C6.82896 1.24171 10.4444 -4.50291e-08 14.2143 -4.50291e-08H185.786C189.556 -4.50291e-08 193.171 1.24171 195.837 3.45196C198.502 5.66221 200 8.65995 200 11.7857C200 14.9115 198.502 17.9092 195.837 20.1195C193.171 22.3297 189.556 23.5714 185.786 23.5714H14.2143Z" fill="#2B2B2B"/>
</svg>
