<svg width="24" height="26" viewBox="0 0 24 26" fill="none" xmlns="http://www.w3.org/2000/svg">
<path d="M19.8669 11.8333H3.53353C2.24486 11.8333 1.2002 12.878 1.2002 14.1666V22.3333C1.2002 23.622 2.24486 24.6666 3.53353 24.6666H19.8669C21.1555 24.6666 22.2002 23.622 22.2002 22.3333V14.1666C22.2002 12.878 21.1555 11.8333 19.8669 11.8333Z" stroke="black" stroke-width="2" stroke-linecap="round" stroke-linejoin="round"/>
<path d="M5.8667 11.8333V7.16665C5.8667 5.61955 6.48128 4.13582 7.57524 3.04186C8.66921 1.94789 10.1529 1.33331 11.7 1.33331C13.2471 1.33331 14.7309 1.94789 15.8248 3.04186C16.9188 4.13582 17.5334 5.61955 17.5334 7.16665V11.8333" stroke="black" stroke-width="2" stroke-linecap="round" stroke-linejoin="round"/>
</svg>
